<svg xmlns="http://www.w3.org/2000/svg" width="163" height="119"><path d="M49.5 30.7h6.3c1 0 1.9.5 2.6 1.2l5.8 7.4v-5.4c0-1.8 1.5-3.2 3.2-3.2h6.3c1.8 0 3.2 1.5 3.2 3.2v3c.6-.9 1.2-1.7 2-2.5 1.4-1.4 3.2-2.5 5.2-3.3 1.9-.8 4.1-1.2 6.5-1.2 3.1 0 5.9.7 8.3 2.1 2 1.1 3.7 2.8 5 5v-3.1c0-1.8 1.5-3.2 3.2-3.2h6.3L135 4.8H57.5l-8.5 26c.2 0 .3-.1.5-.1zm55.8 30.1c-.9-.6-1.5-1.5-1.5-2.7v-3c-.3.4-.5.9-.8 1.3-1 1.3-2.2 2.3-3.5 3.2-1.3.8-2.7 1.4-4.3 1.9-1.5.4-3.1.6-4.8.6-2.3 0-4.4-.4-6.4-1.2-2-.8-3.7-1.9-5.1-3.4-.7-.7-1.4-1.6-2-2.5v3.1c0 1.8-1.5 3.2-3.2 3.2h-6.3c-1 0-1.9-.5-2.6-1.2L59 52.7v5.4c0 1.8-1.5 3.2-3.2 3.2h-6.3c-.9 0-1.7-.4-2.3-.9-.6.6-1.4.9-2.3.9H39l-4.2 12.9h20.9l-15.7 40 65.3-53.4z" fill="#e50012"/><path d="M6 33.9h9.3c1.6 0 3.2.3 4.6 1 1.4.7 2.7 1.5 3.8 2.6 1.1 1.1 1.9 2.4 2.6 3.9.6 1.5.9 3 .9 4.6 0 1.6-.3 3.1-.9 4.6-.6 1.5-1.5 2.8-2.5 3.9-1.1 1.1-2.3 2-3.8 2.7-1.4.7-3 1-4.7 1H6V33.9zm6.3 18.9h1.4c1.1 0 2.1-.2 2.9-.5.9-.3 1.6-.8 2.2-1.4s1-1.3 1.3-2.1c.3-.8.5-1.7.5-2.7 0-1-.2-1.9-.5-2.7-.3-.8-.8-1.6-1.4-2.2-.6-.6-1.3-1.1-2.2-1.4-.9-.3-1.8-.5-2.9-.5h-1.4v13.5zM45 39.3h-7.5v4h7.1v5.3h-7.1v4.2H45v5.3H31.2V33.9H45v5.4zm4.5 18.8V33.9h6.3l11.6 14.8V33.9h6.3v24.2h-6.3L55.8 43.3v14.8h-6.3zm41-13.5H103c0 1.3-.1 2.5-.2 3.5-.1 1.1-.3 2-.6 2.9-.4 1.3-1.1 2.4-1.8 3.4-.8 1-1.7 1.8-2.7 2.4-1 .7-2.2 1.2-3.4 1.5-1.2.3-2.6.5-3.9.5-1.9 0-3.6-.3-5.2-.9-1.6-.6-2.9-1.5-4-2.6s-2-2.5-2.6-4c-.6-1.6-.9-3.3-.9-5.2 0-1.9.3-3.6.9-5.2.6-1.6 1.5-2.9 2.6-4s2.5-2 4.1-2.6c1.6-.6 3.3-.9 5.3-.9 2.5 0 4.7.5 6.6 1.6 1.9 1.1 3.4 2.8 4.5 5.1l-6 2.5c-.6-1.3-1.3-2.3-2.2-2.9-.9-.6-1.9-.9-3-.9-.9 0-1.8.2-2.6.5-.8.4-1.4.9-2 1.5-.5.7-1 1.4-1.3 2.4-.3.9-.5 1.9-.5 3.1 0 1 .1 2 .4 2.9.3.9.7 1.6 1.2 2.3.5.6 1.2 1.1 2 1.5.8.4 1.7.5 2.8.5.6 0 1.2-.1 1.8-.2.6-.1 1.1-.4 1.6-.7.5-.3.8-.7 1.1-1.2.3-.5.5-1.1.6-1.8h-5.2v-5zm30.3-5.3h-7.5v4h7.1v5.3h-7.1v4.2h7.5v5.3H107V33.9h13.8v5.4zm10.8 4.6l7.7-10h7.8l-9.6 11.5L148 58.1h-8.2l-8.2-10.5v10.5h-6.3V33.9h6.3v10zm25.4-10v24.2h-6.3V33.9h6.3z" fill="#231815"/></svg>