<svg xmlns="http://www.w3.org/2000/svg" viewBox="0 0 30.19 25.51"><defs><style>.cls-1,.cls-2{fill:#e60012;}.cls-1{fill-rule:evenodd;}</style></defs><g id="レイヤー_2" data-name="レイヤー 2"><g id="レイヤー_1-2" data-name="レイヤー 1"><path class="cls-1" d="M15.46,23.55a2.55,2.55,0,0,1,2.59-2.49,2.67,2.67,0,0,1,1.78.68c0-.14,0-.28.06-.44l.45-3.07L19,18.89c-.61.29-.69-.3-.77-.52a12.57,12.57,0,0,0-1.42-3.05c-.33-.46-1.43-1.28-3.1-.13a2.37,2.37,0,0,0-.7,3.38,18.1,18.1,0,0,0,1.87,2c.33.34.26.71-.21,1s-5.09,3.19-5.09,3.19L1,9.64s3.13-2.4,5.21-3.73c0,0,.55-.34.86.48S8,10.2,8.92,10.57A3.7,3.7,0,0,0,11.55,10a2.16,2.16,0,0,0,1.14-2.25,11.86,11.86,0,0,0-2.21-3.56s-.59-.54,0-.92S14,1.65,15.91.9c0,0,1.91,4.16,2.25,4.8s.59,1,.47,1.19a4,4,0,0,1-1.5.64c-.56.17-1.53.7-1.54,1.65s.76,2.89,1.84,3.05,2.33-1.09,2.67-1.29.69-.47.94,0c0,.08.15.26.31.52l0-.27A5,5,0,0,1,25.51,7V1.92A1.9,1.9,0,0,0,23.62,0H1.89A1.91,1.91,0,0,0,0,1.92V23.6a1.91,1.91,0,0,0,1.89,1.91h14.6A2.43,2.43,0,0,1,15.46,23.55Z"/><path class="cls-2" d="M30.19,9.73a1.59,1.59,0,0,0-.06-.38l0-.09a1.52,1.52,0,0,0-.46-.66l-.14-.11-.05,0a4.08,4.08,0,0,0-2.34-.67c-2.5,0-4.32,1.12-4.78,3.52l-.45,2.86H20.17a1.1,1.1,0,1,0,0,2.19h1.4l-.74,5.08c-.38,2.6-.64,3.63-1.81,3.63a2.3,2.3,0,0,1-.45-.05,1.57,1.57,0,0,0,1.14-1.47,1.66,1.66,0,0,0-3.31,0,1.52,1.52,0,0,0,.83,1.34,3.5,3.5,0,0,0,1.89.5c2.33,0,4.33-1.1,4.85-4.49l.68-4.54h3.22a1.1,1.1,0,0,0,0-2.19H25l.59-3.72c.24-1.58.68-2.34,1.66-2.34a2.13,2.13,0,0,1,.84.16,1.55,1.55,0,0,0-1.19,1.48,1.6,1.6,0,0,0,1.66,1.54,1.64,1.64,0,0,0,1.55-1,.66.66,0,0,0,.06-.2h0a1.55,1.55,0,0,0,0-.31Z"/></g></g></svg>