<svg version="1.1" id="レイヤー_1" xmlns="http://www.w3.org/2000/svg" x="0" y="0" width="255.5" height="230.3" xml:space="preserve"><style>.st0{fill:#4f72a0}</style><path class="st0" d="M6.9 229.2v-35.6h6.5c3.2 0 5.4 0 7.5 2.2 2.2 2.2 3.2 5.4 3.2 7.5 0 3.2-1.1 5.4-4.3 7.5 3.2 1.1 4.3 5.4 4.3 8.6 0 7.5-5.4 9.7-11.9 9.7.1.1-5.3.1-5.3.1zm7.5-15.1v9.7c3.2 0 4.3-2.2 4.3-5.4 0-2.1-2.1-4.3-4.3-4.3zm0-14v8.6c2.2 0 4.3-2.2 4.3-4.3 0-3.2-2.1-4.3-4.3-4.3zm29.1-6.5v6.5H36v7.5h6.5v6.5H36v7.5h7.5v6.5h-14v-35.6h14v1.1zm18.4 0l8.6 35.6H63l-1.1-6.5h-7.5l-1.1 6.5h-7.5l8.6-35.6h7.5zm-3.3 15.1l-1.1-5.4-1.1 5.4-1.1 9.7h5.4l-2.1-9.7zm20.5-15.1l8.6 21.6v-21.6h7.5v35.6h-7.5l-8.6-21.6v20.5h-6.5v-35.6h6.5v1.1zm34.5 8.6c-1.1-1.1-3.2-2.2-5.4-2.2s-3.2 1.1-3.2 3.2c0 5.4 10.8 6.5 10.8 16.2 0 6.5-3.2 10.8-10.8 10.8-2.2 0-4.3-1.1-6.5-2.2v-6.5c2.2 1.1 3.2 2.2 5.4 2.2s4.3-1.1 4.3-4.3c0-3.2-2.2-3.2-4.3-5.4-4.3-3.2-6.5-5.4-6.5-10.8s3.2-10.8 9.7-10.8c2.2 0 4.3 1.1 6.5 2.2v7.6zm17.3 27v-35.6h6.5c3.2 0 5.4 0 7.5 2.2 2.2 2.2 3.2 5.4 3.2 7.5 0 3.2-1.1 5.4-4.3 7.5 3.2 1.1 4.3 5.4 4.3 8.6 0 7.5-5.4 9.7-11.9 9.7.1.1-5.3.1-5.3.1zm6.4-15.1v9.7c3.2 0 4.3-2.2 4.3-5.4 1.1-2.1-1-4.3-4.3-4.3zm0-14v8.6c2.2 0 4.3-2.2 4.3-4.3.1-3.2-1-4.3-4.3-4.3zm22.7-6.5v22.6c0 2.2 0 6.5 3.2 6.5s3.2-2.2 3.2-5.4v-24.8h7.5v25.9c0 3.2 0 9.7-10.8 9.7-6.5 0-10.8-3.2-10.8-9.7v-27h7.5v2.2zm24.8 0l8.6 21.6c0-2.2-1.1-3.2-1.1-5.4v-16.2h7.5v35.6h-6.5l-8.6-21.6v20.5h-7.5v-35.6h7.5v1.1zm26.9 0v16.2l5.4-16.2h7.5l-6.5 16.2 7.5 19.4h-7.5l-6.5-18.3v18.3h-7.5v-35.6h7.6z"/><path class="st0" d="M250.6 211.9c0 12.9-6.5 18.3-12.9 18.3s-12.9-5.4-12.9-18.3 6.5-18.3 12.9-18.3c7.5 0 12.9 5.4 12.9 18.3zm-11.9 11.9c4.3 0 5.4-8.6 5.4-11.9 0-3.2 0-11.9-5.4-11.9-4.3 0-5.4 8.6-5.4 11.9 0 3.3 0 11.9 5.4 11.9zm9.7-200.5c-18.3-31.3-79.8-30.2-141.2 1h18.3l-23.7 141.2H62.9L83.4 38.3C22 76.1-11.5 131.1 6.9 163.4c17.3 29.1 73.3 30.2 132.6 3.2h-27l5.4-33.4h5.4c8.6 0 20.5 0 22.6-11.9s-10.8-11.9-19.4-11.9h-4.3l5.4-30.2h3.2c7.5 0 16.2-1.1 17.3-10.8 2.2-10.8-7.5-9.7-15.1-9.7h-2.2l5.4-34.5H147c27 0 53.9 6.5 49.6 38.8-4.3 12.9-11.9 24.8-24.8 29.1v1.1c14 5.4 22.6 16.2 19.4 33.4-1.1 3.2-1.1 6.5-2.2 9.7 49.7-36.5 76.6-83.9 59.4-113z"/><path d="M100.7 165.6l23.7-141.2h-17.3c-4.3 3.2-9.7 5.4-14 8.6-3.2 1.1-6.5 3.2-9.7 5.4L62.9 165.6h37.8zm71.1-72.3v-1.1c12.9-4.3 21.6-16.2 22.6-28 5.4-32.3-21.6-38.8-49.6-38.8H134l-5.4 34.5h2.2c7.5 0 17.3-1.1 15.1 9.7-1.1 9.7-9.7 10.8-17.3 10.8h-3.2l-4.3 28h4.3c8.6 0 21.6 0 19.4 11.9s-14 11.9-22.6 11.9h-5.4l-5.4 33.4h27c7.5-3.2 16.2-7.5 23.7-11.9 9.7-5.4 18.3-10.8 25.9-17.3 1.1-3.2 2.2-6.5 2.2-9.7 4.3-16.1-4.3-28-18.4-33.4z" fill="none"/></svg>