<svg version="1.1" id="logo" xmlns="http://www.w3.org/2000/svg" x="0" y="0" width="274.1" height="421.8" xml:space="preserve"><style>.st0{fill:#5fc1c7}</style><path id="path" class="st0" d="M155.6 121.4l.1-.1c5.5 3.2 11.8 5.2 18.7 5.2 20.6 0 37.2-16.7 37.2-37.2 0-18.1-12.9-33.1-29.9-36.5-.4-.2-.8-.3-1.3-.4-5.3-.8-6.1-4.2-5.9-7.7.1-.5.1-1 .1-1.5 0-.2 0-.4.1-.5.3-1.8.5-3.6.5-5.4 0-20.6-16.7-37.2-37.3-37.2s-37.2 16.7-37.2 37.2c0 1.8.3 3.5.5 5.3l-.2.2c.6 4 .7 8.7-5.7 9.7-.2 0-.4.1-.6.2C76.6 55 62.6 70.4 62.6 89.2c0 20.6 16.7 37.2 37.3 37.2 6.8 0 13.1-2 18.7-5.2l.1.1c2.3-1.5 8-.6 8 3.9v55.5c0 2.4-2 3.3-3.4 2.2-8.1-7.3-12.4-18.9-23.9-18.9-13.8 0-19.1 19-5.2 23.9v.2c-13.9 5.4-8.6 23.8 5.2 23.8 11.5 0 15.7-11.5 23.9-18.9 1.4-1.1 3.4-.2 3.4 2.2v46.4c0 4 3.3 7.2 7.3 7.2h6.5c4 0 7.2-3.3 7.2-7.2v-20.1c0-.8.2-1.4.6-1.6.9-.4 2.7 1.5 3.2 2 6 5.1 10.7 10.4 14.8 17.1.6 1 1.5 3 2.4 2.9.7-.1 1.2-1.3 1.5-1.8 1.3-2.1 3-4.5 4.1-6.1 5.4-7.3 11.9-12.7 19.1-18.2.7-.5 1.6-1.1 1.6-1.8s-1-1.3-1.6-1.8c-4.8-3.6-8.8-6.8-12.9-10.9-4-4-7.4-8.4-10.4-13.4-.3-.5-1-1.8-1.7-1.7-.9 0-1.7 2.1-2.2 3-4.1 6.6-9 12-14.7 16.9-.5.5-2.3 2.2-3.2 2.1-.5 0-.6-.8-.7-1.8v-42.3c0-.6 0-1.3.2-1.7.5-1.4 2.4-2.4 4-2.9.6-.2 1.5-.5 2.6-.6 1.1-.1 2.5-.2 2.7.4.2.5-.7 1.3-1 1.7-1.3 1.6-2.3 3.4-2.7 5.7-.6 3.6.5 6.7 2 8.9s3.8 3.8 6.6 4.6c3.1.9 6.8.5 9.5-.8 4.6-2.2 7.8-7 11.1-11.3 2.8-3.6 5.9-7.3 10-9.6.2-.1 1.6-.5 1.5-1.3 0-.5-.8-.7-1.6-1.2-4.2-2.3-7.4-6.1-10-9.6-3.3-4.3-6.2-9-11.1-11.3-1.4-.6-2.8-1-4.4-1.2-5.6-.5-9.4 1.9-11.5 5.1-1.6 2.3-2.6 5.5-2 8.9.4 2.5 1.5 4.1 2.8 5.6.4.4 1.1 1 .9 1.8-.7.5-1.8.4-2.8.2-2.6-.4-5.5-1.6-6.4-3.3-.2-.3-.2-.8-.2-1.3V125c-.2-4.2 5.5-5 7.8-3.6zm4.4 90.8c.8-.7 1.5-1.2 2-1.7s.9-1.1 1.4-1.7c1-1.1 1.9-2 2.9-3.1.5-.5 1.1-1.4 1.7-1.5.7-.2 1.3.3 1.8.9 2.3 2.5 3.6 4.2 6.3 6.5.4.4.9.8 1.3 1.2.4.4 1 1 1 1.5 0 1-1.8 2.2-2.4 2.7-2.3 2.1-4.1 4-6.3 6.4-.5.5-.9 1-1.5 1-1.1 0-2-1.6-2.7-2.4-2.2-2.4-4-4.1-6.4-6.3-.4-.4-1-.9-1-1.5.2-.7 1.1-1.4 1.9-2zm14.3-142.3c10.7 0 19.3 8.7 19.3 19.4s-8.7 19.4-19.3 19.4c-10.7 0-19.4-8.7-19.4-19.4.1-10.7 8.7-19.4 19.4-19.4zm-74.5 38.7c-10.7 0-19.4-8.7-19.4-19.4s8.7-19.4 19.4-19.4 19.3 8.7 19.3 19.4c.1 10.7-8.6 19.4-19.3 19.4zm38.1-52c-10.7 0-19.4-8.7-19.4-19.4s8.7-19.3 19.4-19.3 19.4 8.7 19.4 19.3c0 10.7-8.7 19.4-19.4 19.4z"/><g id="g"><path class="st0" d="M36.9 279h-2.4c-.1 0-.2 0-.2.2v.6c-.4 1.3-1.5 2-3.2 2H11.6c-2.2 0-3.3-1-3.3-2.9v-5.6c.2-1.9 1-2.9 2.4-2.9.2 0 .3-.1.3-.3v-.4c0-.2-.2-.2-.2-.2H.2s-.2 0-.2.2v.4c0 .1.1.2.3.3.2 0 .5 0 .7.1 1.1.5 1.7 1.6 1.7 3.2v4.9c0 1.7-.4 3-2.6 3.2 0 0-.2.1-.2.3v1.1c0 .2.2.3.2.3 2.2.2 2.6 1.5 2.6 3.2v8.9c0 2.3.9 4.2 2.5 5.7 2.2 1.9 4.5 2.1 5 2.1h20.6s.2 0 .2-.2V300c0-.1-.2-.2-.2-.2h-2.5c-.1 0-.3 0-.3.4 0 .2 0 .4-.1.7-.4 1.1-1.5 1.7-3.1 1.7H14.7c-3 0-5.1-1.4-6.2-4.2-.2-.7-.3-1.4-.3-2v-10.1c0-1.9 1.1-2.9 3.3-2.9h20.3c.1 0 .2 0 .4.1.1 0 .1 0 .2.1.1 0 .2.1.3.1.1 0 .1 0 .2.1.1 0 .2.1.3.1 0 0 .1 0 .1.1.1.1.2.1.3.2l.1.1.3.3c.2.2.3.5.4.9v.6c0 .2.1.2.2.2H37c.2 0 .2-.2.2-.2v-6.7c-.1-.2-.1-.4-.3-.4z"/><path class="st0" d="M19.7 276.6c2.1.2 2.5 1.4 2.6 2.9 0 .1.1.3.3.3h1.2c.2 0 .3-.2.3-.3 0-1.5.5-2.6 2.2-2.9 1.8.3 2.2 1.4 2.2 2.9 0 .1.1.3.3.3h1.3c.2 0 .3-.2.3-.3 0-1.5.5-2.7 2.6-2.9 0 0 .2-.1.2-.3v-1.1c0-.2-.2-.3-.2-.3-2.1-.2-2.5-1.4-2.6-2.9 0-.1-.1-.3-.3-.3h-1.3c-.2 0-.3.2-.3.3 0 1.5-.4 2.6-2.2 2.9-1.8-.3-2.2-1.4-2.2-2.9 0-.1-.1-.3-.3-.3h-1.2c-.2 0-.3.2-.3.3-.1 1.5-.5 2.7-2.6 2.9 0 0-.2.1-.2.3v1.1c0 .2.2.3.2.3zm29.9 14.3h-2.4c-.4 0-.7 0-1-.1h-.1c-.2 0-.3-.1-.5-.2-.1-.1-.3-.1-.4-.2-.1-.1-.2-.2-.3-.2-.1-.1-.3-.2-.4-.4-.1-.1-.1-.2-.2-.2-.1-.2-.3-.4-.4-.7v-.6c0-.2-.1-.2-.2-.2h-2.4c-.1 0-.2.1-.2.2v6.8s0 .2.2.2h2.4c.1 0 .2-.1.2-.2v-.6c.4-1.3 1.5-2 3.2-2h13.8c1.7 0 2.8.7 3.2 2v.6c0 .2.1.2.2.2h2.4c.2 0 .2-.2.2-.2v-6.7s0-.2-.2-.2h-2.4c-.1 0-.2.1-.2.2v.6c-.1.3-.3.6-.4.8v.1c-.1.1-.1.2-.2.2l-.1.1c-.1 0-.1.1-.2.1-.1.1-.1.1-.2.1 0 0-.1 0-.1.1-.1.1-.2.1-.3.1-.4.2-.9.2-1.5.2H49.6zm90.2-3.2c-2.1-.2-2.5-1.4-2.6-2.9v-1.3c0-3.2-1.7-5.6-5.2-7.2-.8-.3-1.6-.5-2.4-.5h-12.2c-.8 0-1.6.2-2.4.5-3.5 1.6-5.2 4-5.2 7.2v1.3c0 1.5-.5 2.7-2.6 2.9 0 0-.2.1-.2.3v1.1c0 .2.2.3.2.3 2.1.2 2.5 1.4 2.6 2.9v1.3c0 .7.1 1.6.4 2.5 1.6 3.4 4 5.2 7.1 5.2h12.2c3.1 0 5.5-1.7 7.1-5.2.3-.9.4-1.8.4-2.5v-1.3c0-1.6.5-2.7 2.6-2.9 0 0 .2-.1.2-.3V288c.2-.2 0-.3 0-.3zm-8.1 5v1.2c0 3.6-1.7 5.8-5.2 6.5l-1.3.1H122l-1.3-.1c-3.5-.7-5.2-2.9-5.2-6.5v-1.6c0-1.6.5-2.7 2.6-2.9 0 0 .2-.1.2-.3V288c0-.2-.2-.3-.2-.3-2.1-.2-2.5-1.4-2.6-2.9v-1.1c0-1 .1-1.9.4-2.7 1.3-2.9 3.3-4.4 6.1-4.4h3.4c2.7 0 4.7 1.5 6.1 4.4.2.8.4 1.7.4 2.7v1.1c0 1.5-.5 2.7-2.6 2.9 0 0-.2.1-.2.3v1.1c0 .2.2.3.2.3 2.1.2 2.5 1.4 2.6 2.9-.2.1-.2.3-.2.4zm42.5-11.5c.5-1.5 1.2-2.5 2.1-3.1.4-.2.7-.3 1-.3.7-.1.9-.1.9-.3v-.4c0-.2-.2-.2-.2-.2h-18.4c-1.3 0-1.8-.5-1.9-1.2 0-.2-.2-.6.1-1.8.2-.7.5-1.8 1-3.5.4-1.5 1.2-2.5 2.1-3.1.8-.5 2-.1 2-.6v-.5c0-.2-.2-.2-.2-.2h-10.9c-.2 0-.2.2-.2.2v.5c0 .3.3.3.3.3 1.1.1 1.7.7 1.7 1.7v.2c0 .5-4.8 16.2-5.2 17.3-.3.9-.7 1.8-1 2.5-.3.5-.7.8-1.1 1.1-.5.3-1.2.3-1.5.3-.5 0-.5.1-.5.2v.5c0 .2.2.2.2.2h10.9s.2-.1.2-.2v-.4s-.1-.2-.2-.3h-.1c-1-.1-1.5-.7-1.6-1.6v-.3c0-.5.6-2.4 2.3-8 .6-1.9 1.9-2.2 2.9-2.2h8.6c1 .2 1.4.7 1.4 1.6v.2c0 .5-1.9 6.6-5.6 18.5-.5 2-1.2 4.1-1.7 5.6-.4.9-.9 1.5-1.6 1.9-.5.3-1.2.3-1.5.3-.5 0-.6.1-.6.2v.6c0 .2.2.2.2.2H169s.2 0 .2-.2v-.4s0-.2-.3-.3c-1-.1-1.7-.7-1.7-1.7v-.6c0-.5.9-3.5 2.7-9 .4-1.3 1.9-2.2 2.9-2.2.2 0 .5 0 .6-.2.1-.3.2-.7.3-1.1.1-.2-.2-.3-.3-.3-1.1-.3-1.6-.9-1.6-1.7v-.4c.1-.4.9-3 2.4-7.8z"/><path class="st0" d="M188 285.1c-2.1-.2-2.5-1.4-2.6-2.9 0-.1-.1-.3-.3-.3h-1.3c-.2 0-.3.2-.3.3-.1 1.5-.4 2.6-2.2 2.9-1.8-.3-2.2-1.4-2.2-2.9 0-.1-.1-.3-.3-.3h-1.3c-.2 0-.3.2-.3.3 0 1.6-.5 2.7-2.6 2.9 0 0-.2.1-.2.3v1.1c0 .2.2.3.2.3 2.1.2 2.5 1.4 2.6 2.9 0 .1.1.3.3.3h1.3c.2 0 .3-.2.3-.3 0-1.5.4-2.5 2.2-2.9 1.8.3 2.2 1.4 2.2 2.9 0 .1.1.3.3.3h1.3c.2 0 .3-.2.3-.3 0-1.6.5-2.7 2.6-2.9 0 0 .2-.1.2-.3v-1.1c-.1-.2-.2-.3-.2-.3zm34.1 17.5c-.2 0-.9 0-1.6-.2-1.4-.5-2.7-1.9-4.3-4.4l-1.6-2.4c-.9-1.7-1.6-2.9-2-3.7 0-.1-.1-.1-.1-.2-.1-.2-.2-.4-.2-.5 0-.1 0-.1-.1-.1v-.9c.1-.4.6-.7 1.5-.8 0 0 .2-.1.2-.3V288c0-.2-.2-.3-.2-.3-.9-.1-1.3-.4-1.5-.8v-.6c0-.5 1.2-2.5 3.3-6.2 1-1.5 2.1-2.4 3.2-2.7 0 0 1-.2 1.4-.2.3 0 .3-.2.3-.2v-.4c0-.2-.2-.2-.2-.2h-10.7s-.2 0-.2.2v.4c0 .1.2.2.2.2.6.4.9.8.9 1.4 0 .1 0 .2-.1.3 0 .1-.1.2-.1.2-.2.4-.4.9-.8 1.6-.3.6-.8 1.4-1.6 2.7 0 .1-.1.1-.1.2h-.2l-.8-1.4c-1.1-1.9-1.8-3.2-1.8-3.6 0-.5.3-1 .9-1.4.1-.1.2-.1.2-.2v-.4c0-.2-.2-.2-.2-.2h-10.7s-.2 0-.2.2v.4s0 .2.3.2c.4 0 1.4.2 1.4.2 1.6.4 3 2 4.4 4.7 1 1.7 1.5 2.6 1.8 3 .6 1.2 1 2.3-1 2.5 0 0-.2.1-.2.3v1.1c0 .2.2.3.2.3 1.9.2 1.7 1.2 1.2 2.2 0 .1-.1.1-.1.2 0 0 0 .1-.1.1-.4.7-1 1.8-2.1 3.7-.2.3-1.4 2.2-1.6 2.4-1.6 2.5-2.9 3.9-4.3 4.4-.8.2-1.4.2-1.6.2-.2 0-.2.2-.2.2v.5s0 .2.2.2h11.1s.2 0 .2-.2v-.4c0-.1-.1-.2-.1-.2-.7-.4-1.1-.9-1.1-1.3s.1-.5.1-.5c0-.1.2-.4.5-1l.1-.1c0-.1 0-.1.1-.2.2-.3.4-.7.7-1.2.1-.1.1-.3.2-.4.5-1 1.4-2.4 2.6-4.5h.2l.3.5c.9 1.6 1.7 2.9 2.3 3.9.1.1.1.3.2.4.8 1.4 1.3 2.4 1.4 2.5 0 0 .1.1.1.5s-.4.9-1.1 1.3c-.1 0-.1.1-.1.2v.4c0 .2.2.2.2.2h11.2c.2 0 .2-.2.2-.2v-.5c-.1.2-.2 0-.4 0z"/><path class="st0" d="M228.5 269.9h-2.4c-.1 0-.2.1-.2.2v.6c-.4 1.3-1.5 2-3.2 2h-10.3c-1.2-.5-1.8-1.5-1.8-3.1v-.6c.1-.6.2-1.2.4-1.6.3-.5.6-.8 1.1-1.1.3-.1.6-.2.9-.2.2 0 .3-.2.3-.3v-.4c0-.2-.2-.2-.2-.2h-10.7s-.2 0-.2.2v.4c0 .1.1.2.3.3.3 0 .6.1.9.2.5.2.8.6 1.1 1.1.2.4.3.9.4 1.6v.6c0 1.6-.6 2.7-1.8 3.1h-10.3c-1.7 0-2.8-.7-3.2-2v-.6c0-.2-.1-.2-.2-.2H187c-.2 0-.2.2-.2.2v6.7s0 .2.2.2h2.4c.1 0 .2-.1.2-.2v-.6c.4-1.3 1.5-1.9 3.1-2h29.9c1.6 0 2.7.7 3.1 2 .1.2 0 .5 0 .6 0 .2.1.2.2.2h2.4c.2 0 .2-.2.2-.2v-6.7c.1 0 .2-.2 0-.2zm10.9 26.8c-.6-.1-1.1-.3-1.4-.7-.2-.3-.4-.7-.2-1.2l.1-.6c.6-2.5 2.7-10.6 5.9-22.5.4-1.4 1.1-2.5 1.9-2.9.5-.3 1.2-.3 1.5-.3h20.6c1.5 0 2.6.5 3 1.4.1.2.2.6.2 1 0 .2.2.4.4.4h2.2c.2 0 .3-.1.3-.3v-3.1c0-.2-.2-.2-.2-.2h-10.8c-1.3-.4-2-1.5-2-3.2v-.6c.1-.6.2-1.2.4-1.6.2-.5.6-.8 1.1-1.1.3-.1.6-.2.9-.2.2 0 .3-.1.3-.3v-.4c0-.2-.2-.2-.2-.2h-10.7s-.2 0-.2.2v.4c0 .1.1.2.3.3.3 0 .6.1.9.2.5.2.8.6 1.1 1.1.2.4.4.9.4 1.6v.6c0 1.7-.7 2.8-2 3.2h-16.9s-.2.1-.2.2v.4s0 .2.3.3c.6.1 1.1.3 1.4.7.2.3.3.7.3 1.2l-.1.5-2 7.9c-.6 1.9-1.9 2.9-3.2 2.9-.3 0-.4-.1-.5.3-.1.2-.2.6-.3 1-.1.3.2.4.2.4 1.2.2 1.8.8 1.8 1.8 0 0 0 .4-.1.7-.1.2-1.4 5.7-1.8 7.4-.5 1.5-1.1 2.6-2 3.1-.5.3-1.2.3-1.5.3-.5 0-.5.1-.5.2v.6c0 .2.2.2.2.2h10.9s.2 0 .2-.2v-.4s.3-.5 0-.5z"/><path class="st0" d="M271.4 285.8c.2-2 1-2.9 2.5-2.9 0 0 .3 0 .3-.3v-.4c0-.2-.2-.2-.2-.2h-12.6v-3.8h8.2s.2 0 .2-.2v-3.1c0-.2-.1-.3-.3-.3h-2.2c-.3 0-.4.2-.4.4 0 .4-.1.7-.2 1-.5.9-1.5 1.4-3 1.4h-2.2v-3c.2-1.9 1-2.9 2.4-2.9.2 0 .3-.1.3-.3v-.4c0-.2-.2-.2-.2-.2h-10.7s-.2 0-.2.2v.4c0 .1.1.2.3.3.2 0 .4 0 .7.1 1.1.5 1.7 1.6 1.7 3.2v2.6h-2.2c-1.5 0-2.6-.5-3-1.4-.1-.2-.2-.6-.2-1 0-.2-.2-.4-.4-.4h-2.2c-.2 0-.3.1-.3.3v3.1c0 .2.2.2.2.2h8.2v3.8h-12.7s-.2 0-.2.2v.4c0 .3.3.3.3.3 1.5 0 2.3 1 2.5 2.9v1c-.1 1.5-.5 2.7-2.6 2.9 0 0-.2.1-.2.3v1.1c0 .2.2.3.2.3 2 .2 2.5 1.3 2.6 2.9v1c-.2 2-1 2.9-2.5 2.9 0 0-.3 0-.3.3v.4c0 .2.2.2.2.2h12.7v3.8h-8.2s-.2 0-.2.2v3.1c0 .2.1.3.3.3h2.2c.3 0 .4-.2.4-.4 0-.4.1-.7.2-1 .5-.9 1.5-1.4 3-1.4h2.2v2.6c0 1.6-.6 2.7-1.7 3.2-.3.1-.6.1-.7.1-.2 0-.3.1-.3.2v.4c0 .2.2.2.2.2H264s.2 0 .2-.2v-.4c0-.1-.1-.2-.3-.3-1.5 0-2.3-1-2.4-2.9v-3h2.2c1.5 0 2.6.5 3 1.4.1.2.2.6.2 1 0 .2.2.4.4.4h2.2c.2 0 .3-.1.3-.3V303c0-.2-.2-.2-.2-.2h-8.2V299H274s.2 0 .2-.2v-.4c0-.3-.3-.3-.3-.3-1.5 0-2.3-1-2.5-2.9v-1c.1-1.5.5-2.7 2.6-2.9 0 0 .2-.1.2-.3v-1c0-.2-.2-.3-.2-.3-2.1-.2-2.5-1.3-2.6-2.9v-1zm-20.2.3c0-2.3 1-3.4 3.1-3.4h1.4v3.7c0 1.6-.6 2.6-1.7 3.1-.2 0-.4.1-.6.1-1.5-.3-2.2-1.4-2.2-3.3v-.2zm3.2 12.2c-2.1 0-3.1-1.1-3.1-3.4v-.2c0-1.9.8-3 2.3-3.3h.3c1.3.4 2 1.5 2 3.2v3.7h-1.5zm11.4-3.4c0 2.3-1 3.4-3.1 3.4h-1.4v-3.7c0-1.6.6-2.6 1.7-3.1.2 0 .4-.1.6-.1 1.5.3 2.2 1.4 2.2 3.3v.2zm0-8.6c0 1.9-.8 3-2.3 3.3h-.3c-1.3-.4-2-1.5-2-3.2v-3.7h1.4c2.1 0 3.1 1.1 3.1 3.4v.2zM105.7 278c-2.1-.2-2.5-1.4-2.6-2.9 0-.1-.1-.3-.3-.3h-1.2c-.2 0-.3.2-.3.3-.1 1.5-.5 2.6-2.2 2.9-1.8-.3-2.2-1.4-2.2-2.9 0-.1-.1-.3-.3-.3h-1.2c-.2 0-.3.2-.3.3 0 1.6-.5 2.7-2.6 2.9 0 0-.2.1-.2.3v1.1c0 .2.2.3.2.3 2.1.2 2.5 1.4 2.6 2.9 0 .1.1.3.3.3h1.2c.2 0 .3-.2.3-.3.1-1.5.5-2.6 2.2-2.9 1.8.3 2.2 1.4 2.2 2.9 0 .1.1.3.3.3h1.2c.2 0 .3-.2.3-.3 0-1.6.5-2.7 2.6-2.9 0 0 .2-.1.2-.3v-1.1c0-.2-.2-.3-.2-.3z"/><path class="st0" d="M97.8 299c-1-.2-1.8-.3-2.3-.6-1.3-.8-2.2-1.8-2.7-2.9-3-5.1-4.5-8-4.6-8.5-.2-.8 0-1.1.5-1.3.3-.1.6-.2 1-.2 0 0 .2-.1.2-.3V284l-.1-.1c-.2 0-.4-.1-.6-.1-.5-.2-.8-.6-.8-1.3 0-.5 0-.8 2.4-4.6 1.5-3.1 3-4.8 4.7-5.3.5-.1.9-.2 1.2-.2.3 0 .4-.1.4-.2v-.4c0-.2-.2-.2-.2-.2H71.3c-1.7 0-2.8-.7-3.2-2v-.6c0-.2-.1-.2-.2-.2h-2.4c-.2 0-.2.1-.2.1v6.8s0 .2.2.2h2.4c.1 0 .2-.1.2-.2v-.6c.4-1.3 1.5-2 3.2-2h14.6c.4 0 1.4.2.8 1.4-.6 1.2-2 3.8-4.1 7.5-.3.5-9.5 16.4-11.6 19.8-1.9 3-3.3 4.7-4.9 5.3-.8.2-1.4.2-1.6.2-.2 0-.2.2-.2.2v.4s0 .2.2.2h11.1s.2 0 .2-.2v-.4c0-.1-.1-.2-.1-.2-.7-.4-1.1-.9-1.1-1.3s.1-.5.1-.5c.2-.5 6.6-11.6 9.1-16h.2l.3.5c2.5 4.3 3.8 6.7 3.8 7.1v.4c0 .5-.3.9-.9 1.3-.1 0-.1.1-.1.2v.4s0 .2.2.2H98s.2 0 .2-.2v-.4h-.4zm82 28.7c0-.4-.4-.5-.5-.5h-28.2s-.5.1-.5.5v1.2c0 .3.3.6.8.7.9 0 1.7.2 2.4.5 1.3.7 2.2 1.6 2.9 2.8.5 1.1.9 2.5 1.1 4.1 0 .3 0 .6.1 1v24.5c-.1 4.1-1.3 7.1-6.8 7.8 0 0-.5.2-.5.7v3c0 .5.5.7.5.7 5.5.6 6.7 3.6 6.8 7.7v11.7c0 1.5-.2 3.2-.7 5.2-2.8 7.4-8.3 11.1-16.2 11.1h-11.1s-.7-.1-.7.5v1.1c0 .7.6.6.6.6h22.7c5.6 0 11.4-3.8 13.8-6 4.1-3.7 6.1-8.6 6.1-14.5v-9.6c.1-4.1 1.3-7.1 6.8-7.7 0 0 .5-.2.5-.7v-3c0-.5-.5-.7-.5-.7-5.5-.6-6.7-3.6-6.8-7.7v-24.4c0-.4 0-.7.1-1.1.2-1.7.5-3 1.1-4.1.7-1.2 1.6-2.1 2.9-2.8.7-.3 1.5-.5 2.4-.5.6 0 .8-.4.8-.7.1-.3.1-1 .1-1.4z"/><path class="st0" d="M138.9 385.3s.5-.1.5-.5v-1.2c0-.3-.3-.6-.8-.7-.9 0-1.7-.2-2.4-.5-1.3-.7-2.2-1.6-2.9-2.8-.5-1.1-.9-2.5-1.1-4.1 0-.4-.1-.7-.1-1.1V348c0-.4 0-.7.1-1.1.2-1.6.5-3 1.1-4.1.7-1.2 1.6-2.1 2.9-2.8.7-.3 1.5-.5 2.4-.5.6 0 .8-.4.8-.7v-1.2c0-.4-.4-.5-.5-.5h-28.2s-.5.1-.5.5v1.2c0 .3.3.6.8.7.9 0 1.7.2 2.4.5 1.3.7 2.2 1.6 2.9 2.8.5 1.1.9 2.5 1.1 4.1v28.6c-.2 1.6-.5 3-1.1 4.1-.7 1.2-1.6 2.1-2.9 2.8-.7.3-1.5.5-2.4.5-.6 0-.8.4-.8.7v1.2c0 .4.4.5.5.5h28.2zm134.8 11.8c-2.6-.4-4.6-.7-6.2-1.6-3.4-2.2-5.7-4.7-7.1-7.5-8.1-13.6-12-21-12.3-22.4-.4-2.1.1-2.9 1.3-3.5.7-.2 1.5-.4 2.5-.6 0 0 .5-.2.5-.7v-3c0-.1 0-.2-.1-.3l-.1-.1c-.1-.2-.3-.3-.3-.3-.6-.1-1.1-.2-1.6-.3-1.4-.6-2.2-1.7-2.2-3.3 0-1.4.1-2.1 6.2-12.1 3.9-8.1 8-12.7 12.5-13.9 1.3-.3 2.4-.5 3.1-.5.9 0 1.1-.3 1.1-.5v-1.2c0-.5-.5-.5-.5-.5h-67c-4.5 0-7.3-1.7-8.5-5.2 0-1.4-.2-2.1-.7-2.1H188l-.5.5v17.9l.5.5h6.3c.4 0-.2-1.1 1-2.8 1.3-3 4.1-4.5 8.2-4.5H242c1.1 0 3.6.5 2.1 3.8-1.5 3.1-5.4 10.1-10.9 19.7-.8 1.2-25.1 43.4-30.6 52.3-5 8-8.6 12.4-12.9 13.9-2 .6-3.7.7-4.3.7-.6 0-.6.4-.6.5v1.2s0 .5.5.5h29.4s.5 0 .5-.5v-1c0-.2-.2-.5-.4-.6-1.8-1.1-2.9-2.4-2.8-3.5.1-1.1.4-1.5.4-1.5.4-1.3 17.3-30.6 24.1-42.3h.5l.7 1.4c6.7 11.3 10.1 17.6 10.1 18.8v.9c0 1.3-.8 2.4-2.5 3.3-.1.1-.4.3-.4.7v1s.1.5.5.5h28.3s.5-.1.5-.5v-1.1c-.1 0-.3-.2-.5-.2zm-168.3-68.5c0-.4-.5-.5-.5-.5H16.1c-4.5 0-7.3-1.7-8.5-5.2-.1-.5-.1-1.2-.1-1.5 0-.5-.3-.6-.6-.6H.5c-.5 0-.5.5-.5.5v17.9s-.1.5.5.5h6.4c.3 0 .6-.1.6-.6 0-.3-.1-1 .1-1.5 1.2-3.4 4-5.2 8.4-5.2h62.1c1.6 0 4.9 1.4 4.9 6.2v13.2l-.2 3.1c-.7 4.1-2.5 7.2-5.1 9.3-4.2 3.1-12.8 3.1-15.8 1.2-1.3-1-2.2-2.3-2.6-3.8-.2-.9-.3-1.8-.3-2.9v-.4c0-.4 0-.7.1-1.1.2-1.7.5-3 1.1-4.1.7-1.2 1.6-2.1 2.9-2.8.7-.3 1.5-.5 2.4-.5.6 0 .8-.4.8-.7v-1.2c0-.4-.4-.5-.5-.5H37.4s-.5 0-.5.5v1.2c0 .3.3.6.8.7.9 0 1.7.2 2.4.5 1.3.7 2.2 1.6 2.9 2.8.5 1.1.9 2.5 1.1 4.1v1.5c-.1 4.1-1.3 7.1-6.8 7.8 0 0-.5.2-.5.7v3c0 .5.5.7.5.7 5.5.6 6.7 3.6 6.8 7.8V401c0 1.5-.2 3.2-.7 5.2-2.8 7.4-8.3 11.1-16.3 11.1H16s-.7-.1-.7.5v1.1c0 .6.6.6.6.6h22.8c5.6 0 11.5-3.8 13.9-6 4.1-3.8 6.2-8.6 6.2-14.5v-18.8c0-4.3 1.5-7.1 4.5-8.5.1-.1.2-.1.3-.2.6-.3 1.2-.4 1.7-.5.3 0 .5 0 .6-.1 1.2 0 2.2-.1 3.2-.1 1.2.1 2.2.1 3.1.1 5-.1 7.3-.4 12.5-2.6 1-.4 1.7-.8 2.3-1.1 7.1-3.7 10.6-10.9 10.6-21.5v-7c.5-5.3 2.7-8 6.7-8 .6 0 .9-.4.9-.7.2-.3.2-1 .2-1.4z"/></g></svg>