<svg xmlns="http://www.w3.org/2000/svg" width="163" height="181.8"><path d="M14.1 166c.8.3 1.5.8 2 1.5.4.6.7 1.2.8 1.9.1.7.2 1.3.2 2 0 1.6-.3 2.9-.9 4-.9 1.5-2.2 2.2-4 2.2h-5v-11.8h5.1c.7-.1 1.3 0 1.8.2zm-4.5 1.8v7.7h2.3c1.2 0 2-.6 2.4-1.7.3-.6.4-1.4.4-2.3 0-1.2-.2-2.1-.6-2.8-.4-.6-1.1-1-2.3-1H9.6zm17.8-1.8c.4.2.8.5 1.1.8.2.3.4.6.6 1 .1.4.2.8.2 1.2 0 .6-.1 1.1-.4 1.7-.3.5-.8.9-1.4 1.2.5.2.9.5 1.2.9.2.4.3 1 .3 1.8v.8c0 .5 0 .9.1 1.1.1.3.2.5.5.7v.3h-2.7c-.1-.3-.1-.5-.2-.6-.1-.3-.1-.7-.1-1v-1.1c0-.8-.1-1.3-.4-1.5-.2-.3-.7-.4-1.4-.4h-2.4v4.6H20v-11.8h5.7c.6 0 1.2.1 1.7.3zm-5.1 1.8v3.2H25c.5 0 .9-.1 1.2-.2.5-.2.7-.7.7-1.3 0-.7-.2-1.2-.7-1.4-.3-.1-.6-.2-1.1-.2h-2.8zm13.4-2.1h2.8l4.2 11.8H40l-.8-2.4h-4.4l-.8 2.4h-2.6l4.3-11.8zm-.1 7.4h3l-1.5-4.6-1.5 4.6zm16.9-3.7c-.2-.8-.6-1.4-1.4-1.7-.4-.2-.9-.3-1.4-.3-1 0-1.7.4-2.3 1.1-.6.7-.9 1.8-.9 3.2 0 1.5.3 2.5 1 3.1.7.6 1.4.9 2.3.9.8 0 1.5-.2 2-.7.5-.5.9-1.1 1-1.9H50v-2h4.9v6.3h-1.6l-.2-1.5c-.5.6-.9 1-1.3 1.2-.7.4-1.5.6-2.4.6-1.6 0-2.8-.5-3.8-1.6s-1.6-2.6-1.6-4.5.5-3.4 1.6-4.6c1.1-1.2 2.4-1.7 4.2-1.7 1.5 0 2.7.4 3.6 1.1.9.8 1.4 1.7 1.6 2.8h-2.5zm14.4 7.1c-.9.9-2.2 1.4-3.9 1.4-1.7 0-3-.5-3.9-1.4-1.2-1.1-1.8-2.8-1.8-4.9 0-2.2.6-3.8 1.8-4.9.9-.9 2.2-1.4 3.9-1.4 1.7 0 3 .5 3.9 1.4 1.2 1.1 1.8 2.7 1.8 4.9 0 2.1-.6 3.8-1.8 4.9zm-1.5-1.8c.6-.7.9-1.7.9-3.1 0-1.3-.3-2.3-.9-3.1-.6-.7-1.3-1.1-2.3-1.1-1 0-1.8.4-2.3 1.1-.6.7-.9 1.7-.9 3.1 0 1.3.3 2.4.9 3.1s1.4 1.1 2.3 1.1c.9 0 1.7-.4 2.3-1.1zm5.5-9h2.6l4.7 8.2v-8.2h2.3v11.8H78l-4.8-8.4v8.4h-2.3v-11.8zm17.4 0h2.6l4.7 8.2v-8.2h2.3v11.8h-2.5l-4.8-8.4v8.4h-2.3v-11.8zm21.1 10.8c-.9.9-2.2 1.4-3.9 1.4-1.7 0-3-.5-3.9-1.4-1.2-1.1-1.8-2.8-1.8-4.9 0-2.2.6-3.8 1.8-4.9.9-.9 2.2-1.4 3.9-1.4 1.7 0 3 .5 3.9 1.4 1.2 1.1 1.8 2.7 1.8 4.9 0 2.1-.6 3.8-1.8 4.9zm-1.5-1.8c.6-.7.9-1.7.9-3.1 0-1.3-.3-2.3-.9-3.1-.6-.7-1.4-1.1-2.3-1.1-1 0-1.8.4-2.3 1.1-.6.7-.9 1.7-.9 3.1 0 1.3.3 2.4.9 3.1.6.7 1.4 1.1 2.3 1.1 1 0 1.7-.4 2.3-1.1zm12.1-9h2.6l-4 11.8h-2.3l-4-11.8h2.6l2.6 9 2.5-9zm13.3 2.1H127v2.5h5.7v2.1H127v3h6.5v2.1h-9v-11.8h8.7v2.1zm3-2.1h2.5v9.7h5.9v2.1h-8.4v-11.8zm12.1 8.2c.1.5.2.9.4 1.2.4.5 1.1.7 2.1.7.6 0 1.1-.1 1.4-.2.7-.2 1.1-.7 1.1-1.4 0-.4-.2-.7-.5-.9-.3-.2-.9-.4-1.6-.6l-1.3-.3c-1.3-.3-2.1-.6-2.6-.9-.8-.5-1.2-1.4-1.2-2.6 0-1.1.4-1.9 1.2-2.6.8-.7 1.9-1 3.4-1 1.3 0 2.3.3 3.2 1 .9.7 1.4 1.6 1.4 2.9H153c0-.7-.4-1.2-1-1.5-.4-.2-.9-.3-1.5-.3-.7 0-1.2.1-1.6.4-.4.3-.6.6-.6 1.1 0 .4.2.7.6.9.2.1.8.3 1.6.5l2.1.5c.9.2 1.6.5 2 .9.7.6 1.1 1.4 1.1 2.4 0 1.1-.4 2-1.3 2.7-.8.7-2 1.1-3.5 1.1-1.6 0-2.8-.4-3.7-1.1-.9-.7-1.3-1.7-1.3-2.9h2.5z" fill="#231815"/><path d="M81.5 4h-1.2c34 .3 63 34.4 66.5 68.6l-.9-1.8c-11.4-22.6-33.2-27.4-35.3-27.8 16.1 8.5 27.1 24.8 27.1 43.5 0 19.5-11.9 36.4-29.1 44.5.7-.5 1.3-1 1.8-1.5 20-20.7 16.9-39.6 16.9-39.6-.1 6.9-5.1 17.8-14.9 26.7-5.8 5.2-12.8 9.5-18.4 10.1-4.7.5-11.6-3.5-8.6-11.8 1.5-4.2 6.6-6.7 13.4-9.2 12.2-4.6 18.6-11.1 18.6-11.1 7-6.6 8.5-15.5 4.8-22.4-1-2-4.6-3.9-4.4-5.3.2-1.4 3.1-1.8 3.1-1.8-.7-.8-3.9-.5-4.9-.5-.3 0-.9.1-1.5.1-1.6-.8-3.3-1.5-5.2-2.1-.3-.1-.7-.2-1-.2 1.9-3.6 6.1-4.7 6.1-4.7s-2.6-.3-6.6.4c-2.2.4-4.5 1.9-6 3.2-1.3-.1-2.5-.2-3.7-.2 2-6.8 7.3-9.2 7.3-9.2s-6.1 1.1-10.5 4.5C92 58.6 89.5 61 88 62.6c-3.3 1-5 2.2-5 2.2.1-1.2 1.5-4.4 1.5-4.4-1.2 1.3-3.6 3.3-5.8 4.4-2.2 1.2-6.9 2-6.9 2 .8-6.7 5.3-10.6 9.8-12.9 4.1-2.1 13.5-4.4 18.2-9 9.8-9.7 6.9-23.3 6.9-23.3-.6 8.1-3.9 13.1-10 17.5S81.8 44 81.8 44c9.8-8.9 8.5-22.1 8.5-22.1s-2 8.3-6.9 13.9c-5 5.6-13.2 7.9-22.4 13.9-7 4.6-10.8 9.9-12.4 12.6-.4.7-.3 1.9-.3 1.9 6.5 1.1 1 5.2-1.3 7-2.4 1.8-6.8 3.9-6.8 3.9 5.2 6.5-6.1 12.2-7.8 11.9-1.6-.3-.1-4.5-.1-4.5-4.3 2.9-4.2 12.6-4.2 12.6h4.6c4.7-3.1 9.7-4.4 13.8-4.9 4.1-.4 9.1.3 9.1.3 2.1 0 6.2-.5 6.2-.5s-6.3-1.5-6.3-2.4 3-1.5 4.7-1.5c1.8 0 7 .6 9.9-1.6 2.9-2.2 6.9-9.1 6.9-9.1 4.6-2.1 29.9-7.1 30.7 2.1.8 9.1-7.4 10.7-10.7 11.7s-20.4 4.4-29.4 10-14.8 13.3-14.8 20.5c0 2.9.4 5.5.8 7.7-23.5-8.9-40-29.9-40-56.3C13.6 39.7 37.2 11 68.1 5 31.2 11.5 3.2 43.6 3.2 82.3c0 43.3 35.1 78.3 78.3 78.3 43.3 0 78.3-35.1 78.3-78.3S124.8 4 81.5 4zM50.9 81.4s-5.8 3.2-8 3.6c0 0 2-6.4 2.3-7.8 0 0 8.9-5.7 10.6-6.8 0 0-3.3 8.1-4.9 11z"/></svg>