<svg id="_レイヤー_1" data-name="レイヤー 1" xmlns="http://www.w3.org/2000/svg" viewBox="0 0 151.07 174.03"><defs><radialGradient id="_特色グラデーション" data-name="特色グラデーション" cx="33.78" cy="-39.01" fx="33.78" fy="-39.01" r="83.29" gradientTransform="matrix(.9 0 0 .9 71.63 71.15)" gradientUnits="userSpaceOnUse"><stop offset="0" stop-color="#fff"/><stop offset=".05" stop-color="#fff"/><stop offset=".15" stop-color="#d3dff2"/><stop offset=".33" stop-color="#8fb9df"/><stop offset=".56" stop-color="#4290cb"/><stop offset=".72" stop-color="#1276be"/><stop offset=".8" stop-color="#006cba"/><stop offset="1" stop-color="#006cba"/></radialGradient><style>.cls-1{fill:#fff}.cls-2{fill:#006cba}</style></defs><path class="cls-2" d="M102.21 143.21c-1.74-1.01-3.43-1.37-5.41-1.94-1.98-.56-2.33-1.09-2.33-1.69s.67-1.56 2.9-1.56c3.28 0 3.32 1.65 3.32 1.65h3.43c0-2.76-2.35-4.97-7.03-4.97s-7.02 2.21-7.02 4.97c0 2.45 2.07 3.93 4.12 4.57 2.04.63 2.83.85 3.39 1.02.57.18 2.58.5 2.58 1.87 0 1.48-1.69 2.05-3.46 2.05-3.07 0-3.36-1.84-3.36-1.84h-3.5s-.21 5.16 7.24 5.16c6.53 0 7.34-3.75 7.34-5.23s-.46-3.04-2.22-4.06zm17.39-8.04h-14.33v3.25h5.11v13.83h4.1v-13.83h5.12v-3.25zm11.05 17.08h4.2l-6.08-15.82c-.33-.88-1.38-1.6-2.32-1.6h-1.46c-.94 0-1.98.72-2.32 1.6l-6.08 15.82h4.2l1.2-3.23h7.45l1.2 3.23zm-7.45-6.48l2.52-6.8 2.52 6.8h-5.05zm27.87-5.52c0-2.8-2.27-5.08-5.08-5.08h-7.89c-.94 0-1.71.77-1.71 1.71v15.37h4.1v-6.91h3.79l2.6 6.92h4.2l-2.86-7.46c1.69-.83 2.86-2.54 2.86-4.55zm-10.58-1.83h4.65c1.02 0 1.83.83 1.83 1.83s-.82 1.84-1.83 1.84h-4.65v-3.67zm-74.34-3.25H51.81v3.25h5.12v13.83h4.1v-13.83h5.12v-3.25zm11.95 0v6.92h-6.15v-6.92h-4.09v17.08h4.09v-6.92h6.15v6.92h4.1v-17.08h-4.1zm-27.6 5.08c0-2.8-2.28-5.08-5.08-5.08h-7.9c-.94 0-1.71.77-1.71 1.71v15.37h4.1v-6.91h3.79l2.6 6.92h4.19l-2.86-7.46c1.68-.83 2.86-2.54 2.86-4.55zm-10.58-1.83h4.64c1.01 0 1.83.83 1.83 1.83s-.82 1.84-1.83 1.84h-4.64v-3.67zM30 152.25h4.19l-6.08-15.82c-.34-.88-1.38-1.6-2.32-1.6h-1.45c-.94 0-1.98.72-2.32 1.6l-6.07 15.82h4.2l1.2-3.23h7.46l1.2 3.23zm-7.45-6.48l2.52-6.8 2.53 6.8h-5.05zm76.69 14.14v-3.24H86.61c-.94 0-1.71.77-1.71 1.71v13.66c0 .94.77 1.71 1.71 1.71h12.63v-3.24H88.99v-3.67h9.56v-3.24h-9.56v-3.67h10.25zm-41.31 14c-4.36 0-8.51-2.84-8.51-8.62s4.15-8.62 8.51-8.62 8.5 2.8 8.5 8.62-4.19 8.62-8.5 8.62zm-4.53-8.62c0 4.6 2.83 5.51 4.53 5.51 1.5 0 4.53-.73 4.53-5.51s-2.96-5.52-4.53-5.52-4.53.79-4.53 5.52zm26.33-8.63l-4.96 13.01-4.96-13.01h-4.02l5.62 14.86c.78 2.53 3.18 2.51 3.36 2.5.19 0 2.58.03 3.36-2.5l5.62-14.86h-4.02zm36.16 13.91v3.19h-12.35s-2 .3-1.85-2.47v-14.63h4.16v13.87l10.05.03z"/><path class="cls-2" d="M115.89 170.57v3.19h-12.35s-2 .3-1.85-2.47v-14.63h4.16v13.87l10.05.03zm-13.68-27.36c-1.74-1.01-3.43-1.37-5.41-1.94-1.98-.56-2.33-1.09-2.33-1.69s.67-1.56 2.9-1.56c3.28 0 3.32 1.65 3.32 1.65h3.43c0-2.76-2.35-4.97-7.03-4.97s-7.02 2.21-7.02 4.97c0 2.45 2.07 3.93 4.12 4.57 2.04.63 2.83.85 3.39 1.02.57.18 2.58.5 2.58 1.87 0 1.48-1.69 2.05-3.46 2.05-3.07 0-3.36-1.84-3.36-1.84h-3.5s-.21 5.16 7.24 5.16c6.53 0 7.34-3.75 7.34-5.23s-.46-3.04-2.22-4.06zm17.39-8.04h-14.33v3.25h5.11v13.83h4.1v-13.83h5.12v-3.25zm11.05 17.08h4.2l-6.08-15.82c-.33-.88-1.38-1.6-2.32-1.6h-1.46c-.94 0-1.98.72-2.32 1.6l-6.08 15.82h4.2l1.2-3.23h7.45l1.2 3.23zm-7.45-6.48l2.52-6.8 2.52 6.8h-5.05zm27.87-5.52c0-2.8-2.27-5.08-5.08-5.08h-7.89c-.94 0-1.71.77-1.71 1.71v15.37h4.1v-6.91h3.79l2.6 6.92h4.2l-2.86-7.46c1.69-.83 2.86-2.54 2.86-4.55zm-10.58-1.83h4.65c1.02 0 1.83.83 1.83 1.83s-.82 1.84-1.83 1.84h-4.65v-3.67zm-74.34-3.25H51.81v3.25h5.12v13.83h4.1v-13.83h5.12v-3.25zm11.95 0v6.92h-6.15v-6.92h-4.09v17.08h4.09v-6.92h6.15v6.92h4.1v-17.08h-4.1zm-63.76 3.25v-3.24H1.71c-.94 0-1.71.77-1.71 1.71v13.66c0 .94.77 1.71 1.71 1.71h12.63v-3.24H4.1v-3.67h9.56v-3.25H4.1v-3.67h10.24zm36.16 1.83c0-2.8-2.28-5.08-5.08-5.08h-7.9c-.94 0-1.71.77-1.71 1.71v15.37h4.1v-6.91h3.79l2.6 6.92h4.19l-2.86-7.46c1.68-.83 2.86-2.54 2.86-4.55zm-10.58-1.83h4.64c1.01 0 1.83.83 1.83 1.83s-.82 1.84-1.83 1.84h-4.64v-3.67zM30 152.25h4.19l-6.08-15.82c-.34-.88-1.38-1.6-2.32-1.6h-1.45c-.94 0-1.98.72-2.32 1.6l-6.07 15.82h4.2l1.2-3.23h7.46l1.2 3.23zm-7.45-6.48l2.52-6.8 2.53 6.8h-5.05zm21.13 27.61l-8.44-11.37.13 11.37h-3.76v-16.71h3.63l8.44 11.37-.13-11.37h3.75v16.71h-3.63zm55.56-13.47v-3.24H86.61c-.94 0-1.71.77-1.71 1.71v13.66c0 .94.77 1.71 1.71 1.71h12.63v-3.24H88.99v-3.67h9.56v-3.24h-9.56v-3.67h10.25zm-41.31 14c-4.36 0-8.51-2.84-8.51-8.62s4.15-8.62 8.51-8.62 8.5 2.8 8.5 8.62-4.19 8.62-8.5 8.62zm-4.53-8.62c0 4.6 2.83 5.51 4.53 5.51 1.5 0 4.53-.73 4.53-5.51s-2.96-5.52-4.53-5.52-4.53.79-4.53 5.52zm26.33-8.63l-4.96 13.01-4.96-13.01h-4.02l5.62 14.86c.78 2.53 3.18 2.51 3.36 2.5.19 0 2.58.03 3.36-2.5l5.62-14.86h-4.02z"/><path class="cls-2" d="M115.89 170.57v3.19h-12.35s-2 .3-1.85-2.47v-14.63h4.16v13.87l10.05.03z"/><path class="cls-2" d="M115.89 170.57v3.19h-12.35s-2 .3-1.85-2.47v-14.63h4.16v13.87l10.05.03z"/><path d="M12.93 62.59C12.93 28.03 40.95 0 75.53 0s62.6 28.03 62.6 62.59-28.02 62.62-62.6 62.62-62.6-28.03-62.6-62.62z" fill="url(#_特色グラデーション)"/><path class="cls-1" d="M62.74 3.59c.18-.48.48-.48.67 0l4.56 11.97c.18.48.76.9 1.27.93l12.78.63c.52.03.61.31.21.64l-9.97 8.03c-.4.32-.62 1-.49 1.5l3.35 12.36c.14.5-.11.68-.54.39l-10.72-7c-.43-.28-1.14-.28-1.57 0l-10.72 7c-.43.28-.68.11-.54-.39l3.35-12.36c.14-.5-.08-1.17-.49-1.5l-9.97-8.03c-.4-.33-.31-.61.21-.64l12.78-.63c.52-.03 1.09-.44 1.27-.93l4.55-11.97z"/><path class="cls-1" d="M70.15 39.76c.14-.36.36-.36.5 0l3.42 8.97c.14.36.57.68.95.69l9.59.47c.39.02.46.23.16.47l-7.48 6.03c-.3.24-.47.75-.36 1.12l2.51 9.26c.1.38-.08.51-.4.3L71 61.82c-.32-.21-.85-.21-1.18 0l-8.04 5.25c-.32.21-.51.08-.4-.3l2.51-9.26c.1-.37-.06-.88-.36-1.12l-7.48-6.03c-.3-.24-.23-.46.16-.47l9.59-.47c.39-.01.82-.33.95-.69l3.42-8.97z"/><path class="cls-1" d="M85.25 61.49c.1-.27.27-.27.38 0l2.56 6.73c.1.27.42.51.72.52l7.19.35c.29.01.34.18.12.36l-5.61 4.52c-.23.18-.35.56-.27.84l1.88 6.95c.08.28-.06.38-.3.22l-6.03-3.94a.867.867 0 00-.88 0l-6.03 3.94c-.24.16-.38.06-.3-.22l1.88-6.95c.08-.28-.05-.66-.27-.84l-5.61-4.52c-.23-.18-.17-.35.12-.36l7.19-.35c.29-.01.61-.25.72-.52l2.56-6.73z"/><path class="cls-1" d="M96.67 77.93c.08-.2.2-.2.28 0l1.92 5.05c.08.2.32.38.54.39l5.39.26c.22 0 .26.13.09.27l-4.21 3.39a.65.65 0 00-.2.63l1.41 5.21c.06.21-.05.29-.23.17l-4.52-2.95a.65.65 0 00-.66 0l-4.52 2.95c-.18.12-.28.04-.23-.17l1.41-5.21a.691.691 0 00-.2-.63l-4.21-3.39c-.17-.13-.13-.26.09-.27l5.39-.26c.22 0 .46-.19.54-.39l1.92-5.05z"/><path class="cls-1" d="M99.01 93.34c.06-.15.15-.15.21 0l1.44 3.79c.06.15.24.29.4.29l4.04.2c.16 0 .19.1.07.21l-3.15 2.54c-.13.1-.2.31-.15.47l1.06 3.91c.04.16-.03.22-.17.12l-3.39-2.21a.497.497 0 00-.5 0l-3.39 2.21c-.14.09-.21.03-.17-.12l1.06-3.91a.507.507 0 00-.15-.47l-3.15-2.54c-.13-.11-.1-.2.06-.21l4.05-.2c.16 0 .34-.14.4-.29l1.44-3.79zm-3.05 12.63c.04-.12.11-.12.16 0l1.08 2.84c.04.11.18.22.3.22l3.03.14c.12 0 .14.08.05.15l-2.37 1.91c-.1.08-.15.23-.12.35l.8 2.93c.03.12-.03.16-.13.09l-2.54-1.66a.352.352 0 00-.37 0l-2.54 1.66c-.1.07-.16.03-.13-.09l.79-2.93c.03-.12-.02-.28-.12-.35l-2.37-1.91c-.09-.08-.07-.15.05-.15l3.03-.14c.12 0 .26-.11.3-.22l1.08-2.84zm-4.8 7.63c.03-.09.09-.09.12 0l.81 2.13c.03.09.14.16.23.16l2.28.12c.09 0 .11.06.04.11l-1.77 1.43c-.07.06-.11.18-.09.26l.6 2.2c.02.09-.02.12-.1.07l-1.91-1.24a.28.28 0 00-.28 0l-1.91 1.24c-.08.05-.12.02-.1-.07l.59-2.2a.238.238 0 00-.09-.26l-1.77-1.43c-.07-.05-.05-.11.04-.11l2.28-.12c.09 0 .19-.08.23-.16l.81-2.13z"/></svg>