<svg xmlns="http://www.w3.org/2000/svg" viewBox="0 0 81.13 81.13"><defs><style>.cls-1{fill:#e60012;fill-rule:evenodd;}.cls-2{fill:#fff;}</style></defs><g id="レイヤー_2" data-name="レイヤー 2"><g id="レイヤー_1-2" data-name="レイヤー 1"><path class="cls-1" d="M81.13,75a6.05,6.05,0,0,1-6,6.09H6A6.05,6.05,0,0,1,0,75V6.09A6.05,6.05,0,0,1,6,0H75.12a6.05,6.05,0,0,1,6,6.09Z"/><path class="cls-2" d="M3.06,30.67S13,23,19.63,18.79c0,0,1.73-1.09,2.73,1.54s2.93,12.12,6,13.27,7.56-1.15,8.35-1.68c1.34-.89,4.66-3.38,3.64-7.15-1.27-4.82-7-11.31-7-11.31s-1.88-1.73,0-2.93c1.6-1,11.13-5.27,17.2-7.67,0,0,6.09,13.22,7.16,15.26s1.86,3.16,1.5,3.81-3,1.51-4.78,2-4.86,2.23-4.89,5.25,2.42,9.2,5.85,9.69,7.42-3.47,8.51-4.1,2.18-1.5,3-.11,8.28,13,11.17,16.36c0,0-8.63,4.19-11,5.61-1.48.89-4.54,2.41-6.69,3.43-1.92.91-2.19-.95-2.46-1.66a39.45,39.45,0,0,0-4.5-9.69c-1.05-1.47-4.55-4.07-9.84-.41S40.07,57,41.38,59.06s5.33,5.82,5.95,6.43c1.05,1.08.83,2.24-.69,3.19S30.46,78.85,30.46,78.85Z"/></g></g></svg>