<svg version="1.1" id="logo" xmlns="http://www.w3.org/2000/svg" x="0" y="0" width="425.9" height="357.2" xml:space="preserve"><style>.st1{fill:#fff}</style><path id="path" fill="#e50065" d="M0 0h425.9v357.2H0z"/><g id="g_1_"><path class="st1" d="M362.7 289.9h-23.8v-4.6h19.2v-218H67.8v218H87v4.6H63.2V62.6h299.5v227.3z"/><path class="st1" d="M237.2 161.1c8.6-3.8 14.1-12.3 14.1-22.9 0-20.5-15.6-30.8-33.1-30.8h-61.3v20.1h59c9.3 0 14.3 6.1 14.3 12.8 0 7-4.9 13-14.3 13h-72.7v20.1H220c9.5 0 16.5 6.2 16.5 14.5 0 8.1-7 14.3-16.5 14.3h-63.2v20.2h65.5c20.2 0 35.3-12.8 35.3-33.3.1-14.6-8.5-24.2-20.4-28zm68.3-58c-4.9-6.4-16-8.3-23.2 2.9 2.6-7.2-.6-12.2-4.9-13.6-5.1-1.6-12.1.4-15.7 9.7-4.8 12.1.9 25.8 6.8 35.6 4.2-13.9 14.6-3.7 28-9.9 12-5.5 13.8-18.5 9-24.7zM174.3 266.7h14.5v6.1h-14.5v-6.1zm-46.5-24.6c2.1-.6 4.8.9 4.5 4.4.6-2 2.1-2.5 3.3-2.1 1.4.5 2.5 2 1.8 4.6-1 3.4-4.4 5.4-7.3 6.5 1.4-3.7-2.5-3.2-4.4-6.7-1.7-3 0-6.1 2.1-6.7zm-26.8 4.2h7.6c4.3 0 8.5 0 11.9 3 1.9 1.7 3.3 4.5 3.3 7.2 0 4.8-3.1 6.7-4.3 7.3 2.6.9 6.6 3.1 6.6 9.6 0 4.6-2.4 7.5-4.8 9.2-2.9 2-7.4 2.3-9.9 2.3H101v-38.6zm7.2 15h2.3c1.7 0 6.1 0 6.1-4.2 0-2.3-1.5-4.2-5.5-4.2h-3v8.4zm0 16.8h3.6c1.4 0 7.2 0 7.2-5.1 0-1.6-.8-5.2-7-5.2h-3.7v10.3zm47.7-14.3c-.5-2.3-2-2.5-2.8-2.5-1.7 0-2.7 1.3-2.7 2.5 0 1.7 1.2 2 4.9 3.2 3.6 1.1 8.1 2.8 8.1 8.6 0 6.5-5.2 10.1-10.1 10.1-2.9 0-6.4-1-8.6-3.8-1.8-2.2-2-4.5-2.2-6.2h7.1c.3 1.3.9 3.7 3.8 3.7 2.2 0 3.1-1.7 3.1-2.9 0-2.1-1.6-2.7-6.5-4.3-3.3-1.1-6.4-3.5-6.4-8.3 0-5.6 5-9 9.7-9 4.3 0 9.2 3.1 9.4 8.9h-6.8zm45-17.5h7.1v31.9h14.8v6.7h-21.9v-38.6zm51-.8c11 0 20.2 8.7 20.2 20.2 0 11-9.1 19.9-20.2 19.9s-20.1-8.9-20.1-19.9c0-11.5 9.2-20.2 20.1-20.2zm0 33.4c7.4 0 13-6.2 13-13.3 0-7.4-5.8-13.4-13-13.4s-13 6-13 13.4c0 7.1 5.7 13.3 13 13.3zm48.1-13.7h25.2v.8c0 11-9.6 19.6-20.4 19.6-11 0-20.7-8.5-20.7-20.1 0-11.4 9.6-20 20.5-20 9.7 0 16.7 6.6 18.7 12.1h-8.5c-1.7-2.6-5.2-5.4-10.3-5.4-8.7 0-13.2 7.4-13.2 13.4 0 5.9 4.4 13.3 13.6 13.3 4.7 0 9.2-2.6 11.4-7.1H300v-6.6z"/><path class="st1" d="M109.6 288.8h7.6c4.3 0 8.5 0 11.9 3 1.9 1.7 3.3 4.5 3.3 7.2 0 4.8-3.1 6.7-4.3 7.3 2.6.9 6.6 3.1 6.6 9.6 0 4.6-2.5 7.5-4.8 9.2-2.9 2-7.4 2.3-9.9 2.3h-10.3v-38.6zm7.1 15h2.3c1.7 0 6.1 0 6.1-4.2 0-2.3-1.4-4.2-5.5-4.2h-3v8.4zm0 16.8h3.6c1.4 0 7.2 0 7.2-5 0-1.6-.8-5.2-7-5.2h-3.8v10.2zm38.2-31.8v24.5c0 1.9 0 8.2 6.7 8.2s6.7-6.2 6.7-8.2v-24.5h7.1v24.5c0 3.1-.4 6.6-2.2 9.1-2.2 3.1-6.2 5.7-11.5 5.7-5.9 0-9.8-3.3-11.5-5.5-1.2-1.7-2.4-4.6-2.4-9.3v-24.5h7.1zm35.8-13.8l24.1 41.8h.1v-28h7.1v38.5h-8l-16.1-28h-.1v28h-7.1V275zm47.4 13.8h7.1v16.7h.1l12-16.7h8.4l-14.5 18.9 14.5 19.6h-8.4l-12-16.9h-.1v16.9h-7.1v-38.5zm58.4-.8c10.9 0 20.2 8.7 20.2 20.2 0 11-9.1 19.9-20.2 19.9s-20.2-8.9-20.2-19.9c0-11.5 9.2-20.2 20.2-20.2zm0 33.4c7.3 0 13-6.2 13-13.3 0-7.4-5.8-13.4-13-13.4s-13 6-13 13.4c0 7.1 5.6 13.3 13 13.3z"/></g></svg>