<svg xmlns="http://www.w3.org/2000/svg" width="319.6" height="173.4"><path d="M26.2 167.3H2.4V96.5h25c11.1 0 22.5 4.9 22.5 17.7 0 8.8-5.1 13.9-13.2 16.1 9.7 1.8 16.1 6.8 16.1 17.3-.1 16-13.6 19.7-26.6 19.7zm.3-63.6H11.4v23.6h13.7c8.2 0 15.3-3 15.3-12.3 0-8.2-6.5-11.3-13.9-11.3zm-.1 30.4h-15v26h12.2c9.4 0 19.6-1 19.6-12.8-.1-10.6-7.6-13.2-16.8-13.2zM93 168.5c-22.2 0-32-16.3-32-36.7 0-20 10.2-36.9 32-36.9 22.4 0 32 15.7 32 36.4 0 20.4-9.7 37.2-32 37.2zm0-66.2c-16.6 0-22.2 15.1-22.2 29.3 0 14.3 5.5 29.6 22.2 29.6s22.3-15.2 22.3-29.6c0-14.6-5.3-29.3-22.3-29.3zm73.3 66.2c-22.2 0-32-16.3-32-36.7 0-20 10.2-36.9 32-36.9 22.4 0 32 15.7 32 36.4 0 20.4-9.7 37.2-32 37.2zm0-66.2c-16.6 0-22.2 15.1-22.2 29.3 0 14.3 5.5 29.6 22.2 29.6s22.3-15.2 22.3-29.6c0-14.6-5.3-29.3-22.3-29.3zm42.7 65V96.5h9.2v70.9H209zm42.3 0l-32.8-38.5 29.8-32.3H260l-31.1 31.8 34.4 39.1h-12zm39.4 1c-13.2 0-24.1-5.5-25.1-20l9.5-.1c.5 9 7.5 12.9 15.9 12.9 7.8 0 16.9-3.5 16.9-12.5 0-4.5-2.5-7.4-6.3-9.5-4.1-2.3-9.3-3.6-13.8-5-10.1-3.1-20.2-7-20.2-19.2 0-14 12.6-19.5 24.9-19.5 11.7 0 23.1 4.3 23.3 17.9h-9.3c-.8-8.2-6.7-11-14.1-11-7.4 0-15.5 3.3-15.5 11.8 0 4 2.5 6.7 6.3 8.7 4 2.2 9.5 3.6 13.8 5.1 10.1 3.3 20.3 6.9 20.3 19.6 0 14.9-13.6 20.8-26.6 20.8zM2.4 76.9l.6-.3c18-8 29.3-26.4 30.3-49.5h27.6v30.4c0 7.6-2.8 10.4-10.3 10.4h-6.8v7.7h8c12 0 17.6-5.6 17.6-17.6V19.5H33.3V4.9H25v14.6H2.4v7.7H25c-.7 24.6-14.3 36.3-22.4 41.1l-.2.1v8.5zm129-55.2V7.5h-6v14.1h6zm9.6 0V7.5h-6v14.1h6zm-42.3 54V37.6c16.6 4 31.8 8.3 48 13.4l.5.2v-8.8l-.3-.1c-13.7-4.4-29-8.6-48.2-13.1V4.9h-8.5v70.9h8.5zm64.9 1.2l.6-.3c18-8 29.3-26.4 30.3-49.5h27.6v30.4c0 7.6-2.8 10.4-10.3 10.4H205v7.7h8c12 0 17.6-5.6 17.6-17.6V19.5h-36.1V4.9h-8.4v14.6h-22.6v7.7h22.6c-.6 24.6-14.3 36.3-22.4 41.1l-.2.1v8.5zm106.2-.5l.5-.1c31.9-6.4 46.8-26.2 46.8-62.3V9.2h-65.7V41h8.3V17h48.7c-.4 29.7-12.2 45.6-38.3 51.4l-.3.1v7.9z" fill="#231815"/></svg>