<?xml version="1.0" encoding="UTF-8"?><svg id="_レイヤー_2" xmlns="http://www.w3.org/2000/svg" viewBox="0 0 141.73 141.73"><defs><style>.cls-1{fill:#fff;}.cls-2{fill:#e7271f;}.cls-3{fill:#090808;}</style></defs><g id="_レイヤー_1-2"><g><rect class="cls-3" width="141.73" height="141.73"/><g><g><path class="cls-1" d="M23.92,76.97V35.48h9.68c5.16,0,9.57,2.01,13.21,6.02,3.64,4.01,5.46,8.92,5.46,14.73s-1.82,10.6-5.46,14.66c-3.64,4.06-8.05,6.09-13.21,6.09h-9.68Zm6.92-34.58v27.66h2.77c3.04,0,5.65-1.35,7.81-4.05,2.17-2.7,3.25-5.96,3.25-9.78s-1.08-7.03-3.25-9.75c-2.17-2.72-4.77-4.08-7.81-4.08h-2.77Z"/><path class="cls-1" d="M80.04,56.21l11,15.35h-8.43s-9.98-13.82-9.98-13.82h-5.11s0,13.82,0,13.82h-6.92V30.07h13.14c3.83,0,7.09,1.35,9.79,4.05,2.7,2.7,4.05,5.96,4.05,9.78,0,2.63-.69,5.05-2.07,7.26-1.38,2.21-3.2,3.9-5.46,5.05Zm-6.29-5.39c1.94,0,3.57-.67,4.91-2.01,1.34-1.34,2.01-2.97,2.01-4.91s-.67-3.57-2.01-4.91c-1.34-1.34-2.97-2.01-4.91-2.01h-6.22v13.83h6.22Z"/><path class="cls-1" d="M97.07,66.16V24.67h20.75v6.92h-13.83v8.3h13.83v6.92h-13.83v12.45h13.83v6.92h-20.75Z"/></g><rect class="cls-2" x="23.92" y="83.18" width="93.89" height="8.27"/></g><g><path class="cls-1" d="M26.29,101.43l5.86,12.1v-12.1h1.61v15.32h-1.84l-6.38-13.04v13.04h-1.61v-15.32h2.37Z"/><path class="cls-1" d="M49.32,101.31c2.55,.78,3.86,3.42,3.86,7.79,0,5.17-1.91,7.97-5.42,7.97-.55,0-1.13-.07-1.63-.23-1.35-.41-2.3-1.26-2.94-2.71-.57-1.24-.92-3.1-.92-4.98,0-2.99,.69-5.33,1.93-6.66,.85-.9,2.14-1.38,3.63-1.38,.53,0,1.01,.07,1.49,.21Zm-2.69,1.49c-1.58,.57-2.43,2.76-2.43,6.27,0,.78,.05,1.47,.11,2.11,.39,2.94,1.47,4.34,3.4,4.34,.41,0,.78-.05,1.1-.16,1.56-.53,2.43-2.78,2.43-6.29,0-.78-.05-1.47-.11-2.09-.39-2.94-1.47-4.34-3.38-4.34-.48,0-.78,.05-1.13,.16Z"/><path class="cls-1" d="M61.92,101.43l3.35,12.65,3.31-12.65h1.77l-4.27,15.32h-1.88l-4.18-15.32h1.91Z"/><path class="cls-1" d="M86.03,101.43v1.54h-6.45v5.07h5.1v1.54h-5.1v5.63h6.64v1.54h-8.5v-15.32h8.31Z"/><path class="cls-1" d="M96.11,101.43v13.78h5.81v1.54h-7.67v-15.32h1.86Z"/><path class="cls-1" d="M116.08,105.42c-.67-2.04-1.47-2.76-3.08-2.76-.32,0-.6,.05-.9,.12-.99,.28-1.65,1.19-1.65,2.27,0,.23,.02,.44,.09,.67,.3,.94,.83,1.31,3.31,2.25,1.61,.62,2.41,1.06,3.08,1.65,.78,.71,1.26,1.84,1.26,2.96,0,.55-.11,1.13-.32,1.65-.71,1.81-2.34,2.82-4.57,2.82-1.47,0-2.89-.48-3.77-1.31-.8-.73-1.19-1.52-1.52-3.05l1.7-.46c.28,1.15,.53,1.68,1.03,2.23,.6,.67,1.54,1.03,2.6,1.03,.32,0,.62-.02,.92-.09,1.19-.28,2-1.29,2-2.53,0-1.4-.76-2.16-3.01-3.03-2.18-.85-2.57-1.03-3.26-1.65-.83-.73-1.35-1.91-1.35-3.05,0-2.37,1.88-4.04,4.52-4.04,.57,0,1.1,.07,1.56,.23,1.52,.48,2.41,1.54,3.01,3.61l-1.65,.48Z"/></g></g></g></svg>