<svg xmlns="http://www.w3.org/2000/svg" viewBox="0 0 280.87 81.5"><path d="M262.33 1l-28.85 79.49h14.27l4.49-13h15.06l-.22 13h13.79V1zm5.23 52.21h-10.41l11-31.87zm-42.28-33.63c.77-4.38-2.18-5.88-4.61-5.88a6.77 6.77 0 00-6.67 5.88l-7.31 41.74c-.77 4.39 2.17 5.88 4.6 5.89a7.35 7.35 0 006.88-6.27l1.25-7h-4.73L216.8 42h18.91l-3.3 18.81c-2.55 14.69-13.78 20.63-23.63 20.66s-19-6-16.39-20.66l7-40.16C202.05 5.83 213.27 0 223.09 0s19 5.83 16.39 20.66l-1.25 7.15h-14.41zm-95.97 0c.76-4.38-2.18-5.88-4.62-5.88a6.73 6.73 0 00-6.69 5.88l-7.33 41.74c-.77 4.39 2.16 5.88 4.6 5.89a7.34 7.34 0 006.88-6.27l1.25-7h-4.73L120.81 42h18.94l-3.3 18.81c-2.58 14.69-13.79 20.63-23.64 20.66s-19-6-16.39-20.66l7.06-40.16C106.06 5.83 117.3 0 127.1 0s19 5.83 16.39 20.66l-1.23 7.15h-14.41zm-95.98 0c.77-4.38-2.18-5.88-4.59-5.88a6.75 6.75 0 00-6.68 5.88l-7.31 41.74c-.78 4.39 2.15 5.88 4.59 5.89a7.34 7.34 0 006.87-6.27l1.25-7h-4.72L24.83 42h19l-3.36 18.84C37.9 75.53 26.69 81.47 16.83 81.5s-19-6-16.39-20.66l7.05-40.16C10.09 5.83 21.31 0 31.13 0s19 5.83 16.39 20.66l-1.25 7.15H31.88zM166.34 1l-28.83 79.49h14.27l4.48-13h15.09l-.24 13h13.79V1zm5.27 52.21h-10.43l11-31.87zM70.39 1L41.54 80.49h14.28l4.47-13h15.07l-.23 13H89V1zm5.23 52.21h-10.4l11-31.87z" fill="#0068b7" data-name="レイヤー 2"/></svg>