<svg xmlns="http://www.w3.org/2000/svg" viewBox="0 0 70.75 70.75"><path d="M6.83 0h57.09c3.77 0 6.83 3.06 6.83 6.83v57.09c0 3.77-3.06 6.83-6.83 6.83H6.83C3.06 70.75 0 67.69 0 63.92V6.83C0 3.06 3.06 0 6.83 0z" fill="#e60012"/><path d="M6.83 61.25v-2.97h1.63c3.96-.07 4.64-.57 6.59-4.89l4.28-10.2h3.51l-4.87 11.38c-1.27 2.99-1.88 3.95-3.25 5.14-1.12.97-2.73 1.4-5.77 1.53H6.82zm46.91-.01V43.18h2.88v15.05l.52-.03c3.37-.17 3.97-1 4.02-5.56V47.9h2.77v5.27c0 3.63-.4 5.18-1.66 6.37-1.32 1.22-2.85 1.67-5.65 1.7h-2.88zm-10.44.01v-3.01c.57-.11 1-.24 1.02-.24 2.23-.73 3.02-2.13 3.16-5.55v-9.27h2.82v8.89c.07 4.58-1.5 7.61-4.56 8.78-.94.4-1.94.4-1.95.4h-.49zm-5.7-.01l-8.06-16.09-4.32 9.31h-3.27l5.63-11.28h4.29l9.25 18.06H37.6zm-1.53-18.07h2.1v3.44h-2.1zm2.97 0h2.08v3.44h-2.08zm.16-12.83l-1.62 3.79c2.86 3.2 7 5.23 11.63 5.23 2.17 0 4.23-.45 6.11-1.25l-3.23-7.78h-12.9zm11.57-3.12l-5.05-12.1-5.16 12.1h10.21zm-17.15-3.45H23.19v3.22h10.27c-1.42 5.26-6.23 9.16-11.93 9.16-6.82 0-12.37-5.55-12.37-12.37S14.71 11.4 21.53 11.4c4.16 0 7.84 2.08 10.09 5.24l2.63-1.86c-2.82-3.99-7.46-6.6-12.72-6.6-8.61 0-15.59 6.98-15.59 15.59s6.98 15.6 15.59 15.6c6.74 0 12.49-4.29 14.66-10.28l8.96-20.36c-6.64 1.79-11.54 7.83-11.54 15.04zM49.21 8.18c-.99 0-1.96.1-2.9.28l12 27.95c3.93-2.83 6.5-7.43 6.5-12.65 0-8.61-6.98-15.59-15.59-15.59z" fill="#fff"/></svg>