<svg xmlns="http://www.w3.org/2000/svg" viewBox="0 0 80 65.5"><path d="M.28 1.55C.5-.32 2.18-.5 3 1.25c3.37 7.15 9.02 9.82 13.66 11.15 3.24.92 9.84.88 12.55.59 1.39-.15 2.51.74 3.22 1.99.67 1.18 5.34 12.47 5.95 13.36.61.9 1.3.83 1.83-.07.39-.67 5.18-11.83 5.96-13.5.79-1.68 1.84-2.01 3.02-1.96 1.18.05 9.28.27 13.03-.56C69.69 10.59 74.76 5.53 77 1.44c1-1.81 2.82-1.61 2.99.27.82 9.34-4.68 18.49-9.61 22.01-.83.6-.65 1.83-.48 2.78.16.95 5.37 31.03 5.93 32.86.56 1.85.98 2.62 1.65 3.01 2.55 1.5 1.52 2.74.43 2.99-1.53.35-7.33-.3-10.08-.3-2.74 0-13.42.13-15.26.4-1.46.22-3.18.05-2.79-1.27.26-.87 1.49-1.42 1.59-2.08.23-1.55-2.4-12.34-2.63-13.57-.23-1.23-1.24-1.19-1.94-.45-.54.57-4.76 5.6-6.21 6.73-1.35 1.03-1.88.79-2.94-.11-1.03-.9-5.28-6.03-6.34-6.75-1.06-.73-1.8-.46-2.13.59-.2.6-2.47 11.73-2.58 12.67-.11.95.79 1.56 1.29 1.76 1.5.62 1.32 2.06.06 2.3-1.6.31-5.75-.02-7.99-.3-2.26-.26-11.43-.26-13.16-.03-1.73.23-3.87.88-4.47-.39-.5-1.06.95-1.95 1.85-2.74.9-.79 1.68-4.59 2.35-7.6.67-3.02 4.49-26.06 4.66-27.39.16-1.34.03-2.29-.95-2.98C5.78 20.66-1.26 15 .28 1.55" fill="#e50012"/><path fill="none" d="M.07-6.66h80v65.52h-80z"/></svg>