<svg xmlns="http://www.w3.org/2000/svg" width="80" height="60.1"><linearGradient id="a" gradientUnits="userSpaceOnUse" x1="17.127" y1="126.809" x2="59.653" y2="169.335" gradientTransform="translate(0 -118)"><stop offset=".1" stop-color="#230c00"/><stop offset="1" stop-color="#231815"/></linearGradient><path d="M38.4 0C21.8 0 8.3 13.5 8.3 30.1s13.5 30.1 30.1 30.1 30.1-13.5 30.1-30.1S55 0 38.4 0zm-.1 57.8c-12.9 0-23.4-10.5-23.4-23.4 0-4.8 1.5-9.3 4-13-1.1 2.9-1.7 6-1.7 9.2 0 14 11.3 25.3 25.3 25.3 2.6 0 5.2-.4 7.6-1.2-3.6 2-7.5 3.1-11.8 3.1zm.1-8.6c-10.5 0-19.1-8.5-19.1-19.1S27.8 11 38.4 11s19.1 8.5 19.1 19.1-8.6 19.1-19.1 19.1zm19.3.8c3.4-4.8 5.4-10.8 5.4-17.2C63.1 16.4 49.7 3 33.2 3h-.9c2-.4 4-.7 6.1-.7 15.3 0 27.7 12.4 27.7 27.7.1 7.9-3.2 15-8.4 20z" fill="url(#a)"/><linearGradient id="b" gradientUnits="userSpaceOnUse" x1="42.763" y1="109.878" x2="65.87" y2="146.858" gradientTransform="translate(0 -118)"><stop offset=".1" stop-color="#230c00"/><stop offset=".3" stop-color="#9a7600"/><stop offset=".5" stop-color="#f9be00"/></linearGradient><path d="M96.5 9.7L40.8 33.4 31.1.9c-6.4 1.6-12 5.2-16 10.2l-.1.1c-.5.7-1.1 1.4-1.5 2.1l22.8 31.1L96.5 9.7z" fill="url(#b)"/></svg>