<svg xmlns="http://www.w3.org/2000/svg" viewBox="0 0 168.77 104.83"><defs><style>.cls-1{fill:none;}.cls-2{fill:#3b1e86;}</style></defs><g id="レイヤー_2" data-name="レイヤー 2"><g id="レイヤー_1-2" data-name="レイヤー 1"><path class="cls-1" d="M165.06,38.82c-4.14-1.12-5.42,3.07-5.55,3s-2.09-7.69-8.62-9.73a17.91,17.91,0,0,0-12.18.56,14.89,14.89,0,0,0-8.11,9.2,24.05,24.05,0,0,0-1.1,5.65c-.16,2-.17,4.55-1.16,6.36-1.93,3.57-9,.67-9,4.45s6.73,1.85,8.48,3.5a4.58,4.58,0,0,1,.82,2.73c.28,3.17,0,11.53-3.68,12.5-4.43,1.18-8.24-5.86-8.24-5.86s-4.83-28-5-28.85c-.29-1.52-.59-3.5.76-4.44,7.89-5.64,16.69-20.29,15.37-35.23-.27-3-3.19-3.35-4.79-.43a36.49,36.49,0,0,1-23.63,17.3c-6,1.34-19,1-20.85.89s-3.6.45-4.85,3.13-8.88,20.55-9.53,21.61c-.83,1.44-1.94,1.56-2.93.12S52.82,25.78,51.75,23.9s-2.9-3.43-5.13-3.18c-4.34.46-14.92.53-20.09-.95C19.11,17.66,10.05,13.35,4.67,1.93,3.38-.86.69-.57.35,2.43-2.12,24,9.12,33,16.25,38.08c1.57,1.11,1.8,2.64,1.51,4.77s-6.37,39-7.44,43.85S8,97.61,6.55,98.87s-3.77,2.66-2.94,4.37c.95,2,4.38,1,7.15.63a185,185,0,0,1,21,.08c3.58.45,10.23,1,12.78.52,2-.4,2.33-2.73-.1-3.72-.78-.31-2.23-1.32-2-2.82s3.8-19.3,4.11-20.29c.53-1.66,1.71-2.09,3.41-1s8.5,9.36,10.16,10.8,2.53,1.85,4.7.18,9.05-9.85,9.92-10.77c1.13-1.18,2.77-1.26,3.11.71S82.42,96.87,82,99.34c-.15,1.06-2.11,1.93-2.54,3.31-.61,2.12,2.14,2.41,4.47,2,3-.43,20.05-.65,24.44-.65s13.64,1,16.12.49c1.73-.41,3.4-2.39-.68-4.78-1.07-.66-1.74-1.86-2.62-4.81-.17-.57-1.11-4.4-1.7-7.56a10.58,10.58,0,0,0,7.14,3.47c12.42.7,12.32-17.85,13.23-26.39a4.8,4.8,0,0,1,1-2.65c1.59-1.73,8.29.52,8.29-3.49s-7.93-1-8.93-4.47c-.78-2.78-.76-14.16,7.47-13.86a7.33,7.33,0,0,1,6.67,5s-5-.34-5.74,3.88c-.49,2.82,2.06,4.84,4,5.52,1.66.59,4.48.34,6.13.52s3.5,1.89,4.17,1.55.32-2.07,1.4-4,2.71-2.29,3.83-4.82S169.23,39.93,165.06,38.82ZM28.16,72.54a2.57,2.57,0,0,1-.43,5.11,1,1,0,0,1-.43-.07,2.53,2.53,0,0,1-2.1-2.93A2.62,2.62,0,0,1,28.16,72.54ZM24.48,82a2.53,2.53,0,0,1,4.34,1.88,2.73,2.73,0,0,1-.71,1.81,3,3,0,0,1-1.82.7,2.55,2.55,0,0,1-1.81-.7,2.89,2.89,0,0,1-.79-1.81A2.75,2.75,0,0,1,24.48,82Zm1.07,16.59a5.08,5.08,0,0,0-5.27-5.27A5.08,5.08,0,0,0,25.55,88a5.08,5.08,0,0,0,5.27,5.27A5.09,5.09,0,0,0,25.55,98.57Zm3.63-29.65a1,1,0,0,1-.42-.07,2.53,2.53,0,0,1-2.11-2.94,2.63,2.63,0,0,1,3-2.11,2.58,2.58,0,0,1-.42,5.12Zm1.51-8.74a1.6,1.6,0,0,1-.49,0,2.49,2.49,0,0,1-2-2.94,2.56,2.56,0,0,1,2.95-2.12,2.57,2.57,0,0,1-.42,5.11Zm3.24-9.44a2.82,2.82,0,0,1-1.79.72,2.68,2.68,0,0,1-1.88-.77,2.74,2.74,0,0,1-.71-1.81,2.54,2.54,0,0,1,4.38-1.75,2.32,2.32,0,0,1,.73,1.75A2.61,2.61,0,0,1,33.93,50.74Zm-1-8.25a5.07,5.07,0,0,0-5.26-5.27A5.09,5.09,0,0,0,33,32a5.1,5.1,0,0,0,5.28,5.27A5.08,5.08,0,0,0,33,42.49Zm70.87,41.37a2.67,2.67,0,0,1-.79,1.81,2.42,2.42,0,0,1-1.79.7,2.6,2.6,0,0,1-1.81-.77,2.42,2.42,0,0,1-.73-1.74A2.46,2.46,0,0,1,99.49,82,2.69,2.69,0,0,1,103,82,2.66,2.66,0,0,1,103.83,83.86Zm-1.49-9.21a2.55,2.55,0,0,1-2.12,2.93.93.93,0,0,1-.42.07,2.61,2.61,0,0,1-2.52-2.1,2.57,2.57,0,0,1,2.09-3A2.65,2.65,0,0,1,102.34,74.65ZM69.49,56.34a2.66,2.66,0,0,1,3.6,0,2.35,2.35,0,0,1,.78,1.81A2.52,2.52,0,0,1,73.09,60a2.59,2.59,0,0,1-1.75.7,2.51,2.51,0,0,1-1.79-.7,2.67,2.67,0,0,1-.8-1.87A2.82,2.82,0,0,1,69.49,56.34Zm-13.83,0a2.84,2.84,0,0,1,.71,1.81A2.65,2.65,0,0,1,55.59,60a2.56,2.56,0,0,1-1.81.7,2.53,2.53,0,0,1-2.53-2.57A2.42,2.42,0,0,1,52,56.34,2.7,2.7,0,0,1,55.66,56.34ZM41.08,39.06a2.54,2.54,0,0,1-.8-1.82A2.58,2.58,0,0,1,41,35.51a2.6,2.6,0,0,1,4.46,1.73,2.63,2.63,0,0,1-.8,1.82,2.57,2.57,0,0,1-1.8.77A2.37,2.37,0,0,1,41.08,39.06Zm5.41,7.7a2.48,2.48,0,0,1-2.22-1.31A2.59,2.59,0,0,1,45.36,42,2.49,2.49,0,0,1,48.78,43a2.58,2.58,0,0,1-1.08,3.49A2.84,2.84,0,0,1,46.49,46.76Zm3.68,7a2.6,2.6,0,0,1-2.29-1.38A2.48,2.48,0,0,1,49,49,2.56,2.56,0,0,1,52.46,50a2.65,2.65,0,0,1-1.08,3.44A2.36,2.36,0,0,1,50.17,53.74Zm12.4,25.34A11,11,0,0,0,51.15,67.67a11,11,0,0,0,11.42-11.4A11,11,0,0,0,74,67.67,11,11,0,0,0,62.57,79.08ZM77.25,52.36A2.58,2.58,0,0,1,75,53.74a2.31,2.31,0,0,1-1.21-.28A2.66,2.66,0,0,1,72.67,50,2.56,2.56,0,0,1,76.17,49,2.5,2.5,0,0,1,77.25,52.36Zm3.62-6.91a2.54,2.54,0,0,1-2.24,1.31,2.9,2.9,0,0,1-1.21-.23A2.59,2.59,0,0,1,76.34,43,2.5,2.5,0,0,1,79.77,42,2.59,2.59,0,0,1,80.87,45.45Zm3.18-6.39a2.39,2.39,0,0,1-1.81.77,2.56,2.56,0,0,1-1.81-4.39,2.72,2.72,0,0,1,3.68.07,2.52,2.52,0,0,1,.72,1.73A2.48,2.48,0,0,1,84.05,39.06Zm4.08-1.86a5.41,5.41,0,0,0,5.61-5.62,5.43,5.43,0,0,0,5.62,5.62,5.43,5.43,0,0,0-5.62,5.62A5.41,5.41,0,0,0,88.13,37.2Zm4.75,11.68a2.58,2.58,0,0,1,.71-1.82,2.79,2.79,0,0,1,3.69,0A2.93,2.93,0,0,1,98,48.88a2.74,2.74,0,0,1-.78,1.86,2.61,2.61,0,0,1-1.8.72,2.66,2.66,0,0,1-1.82-.77A2.4,2.4,0,0,1,92.88,48.88ZM94.38,58a2.52,2.52,0,0,1,2.1-3,2.63,2.63,0,0,1,3,2.12,2.6,2.6,0,0,1-2.1,2.94,1.48,1.48,0,0,1-.43,0A2.52,2.52,0,0,1,94.38,58Zm3.56,5.78a2.64,2.64,0,0,1,2.94,2.11,2.52,2.52,0,0,1-2.11,2.94.85.85,0,0,1-.41.07,2.5,2.5,0,0,1-2.52-2.17A2.57,2.57,0,0,1,97.94,63.8Zm3.79,34.77a5.09,5.09,0,0,0-5.29-5.27A5.09,5.09,0,0,0,101.73,88,5.08,5.08,0,0,0,107,93.3,5.09,5.09,0,0,0,101.73,98.57Z"/><path class="cls-2" d="M165.06,38.82c-4.14-1.12-5.42,3.07-5.55,3s-2.09-7.69-8.62-9.73a17.91,17.91,0,0,0-12.18.56,14.89,14.89,0,0,0-8.11,9.2,24.05,24.05,0,0,0-1.1,5.65c-.16,2-.17,4.55-1.16,6.36-1.93,3.57-9,.67-9,4.45s6.73,1.85,8.48,3.5a4.58,4.58,0,0,1,.82,2.73c.28,3.17,0,11.53-3.68,12.5-4.43,1.18-8.24-5.86-8.24-5.86s-4.83-28-5-28.85c-.29-1.52-.59-3.5.76-4.44,7.89-5.64,16.69-20.29,15.37-35.23-.27-3-3.19-3.35-4.79-.43a36.49,36.49,0,0,1-23.63,17.3c-6,1.34-19,1-20.85.89s-3.6.45-4.85,3.13-8.88,20.55-9.53,21.61c-.83,1.44-1.94,1.56-2.93.12S52.82,25.78,51.75,23.9s-2.9-3.43-5.13-3.18c-4.34.46-14.92.53-20.09-.95C19.11,17.66,10.05,13.35,4.67,1.93,3.38-.86.69-.57.35,2.43-2.12,24,9.12,33,16.25,38.08c1.57,1.11,1.8,2.64,1.51,4.77s-6.37,39-7.44,43.85S8,97.61,6.55,98.87s-3.77,2.66-2.94,4.37c.95,2,4.38,1,7.15.63a185,185,0,0,1,21,.08c3.58.45,10.23,1,12.78.52,2-.4,2.33-2.73-.1-3.72-.78-.31-2.23-1.32-2-2.82s3.8-19.3,4.11-20.29c.53-1.66,1.71-2.09,3.41-1s8.5,9.36,10.16,10.8,2.53,1.85,4.7.18,9.05-9.85,9.92-10.77c1.13-1.18,2.77-1.26,3.11.71S82.42,96.87,82,99.34c-.15,1.06-2.11,1.93-2.54,3.31-.61,2.12,2.14,2.41,4.47,2,3-.43,20.05-.65,24.44-.65s13.64,1,16.12.49c1.73-.41,3.4-2.39-.68-4.78-1.07-.66-1.74-1.86-2.62-4.81-.17-.57-1.11-4.4-1.7-7.56a10.58,10.58,0,0,0,7.14,3.47c12.42.7,12.32-17.85,13.23-26.39a4.8,4.8,0,0,1,1-2.65c1.59-1.73,8.29.52,8.29-3.49s-7.93-1-8.93-4.47c-.78-2.78-.76-14.16,7.47-13.86a7.33,7.33,0,0,1,6.67,5s-5-.34-5.74,3.88c-.49,2.82,2.06,4.84,4,5.52,1.66.59,4.48.34,6.13.52s3.5,1.89,4.17,1.55.32-2.07,1.4-4,2.71-2.29,3.83-4.82,1.08-7.76-3.09-8.87M28.16,72.54a2.57,2.57,0,0,1-.43,5.11,1,1,0,0,1-.43-.07,2.53,2.53,0,0,1-2.1-2.93,2.62,2.62,0,0,1,3-2.11M24.48,82a2.53,2.53,0,0,1,4.34,1.88,2.73,2.73,0,0,1-.71,1.81,3,3,0,0,1-1.82.7,2.55,2.55,0,0,1-1.81-.7,2.89,2.89,0,0,1-.79-1.81A2.75,2.75,0,0,1,24.48,82m1.07,16.59a5.08,5.08,0,0,0-5.27-5.27A5.08,5.08,0,0,0,25.55,88a5.08,5.08,0,0,0,5.27,5.27,5.09,5.09,0,0,0-5.27,5.27m3.63-29.65a1,1,0,0,1-.42-.07,2.53,2.53,0,0,1-2.11-2.94,2.63,2.63,0,0,1,3-2.11,2.58,2.58,0,0,1-.42,5.12m1.51-8.74a1.6,1.6,0,0,1-.49,0,2.49,2.49,0,0,1-2-2.94,2.56,2.56,0,0,1,2.95-2.12,2.57,2.57,0,0,1-.42,5.11m3.24-9.44a2.82,2.82,0,0,1-1.79.72,2.68,2.68,0,0,1-1.88-.77,2.74,2.74,0,0,1-.71-1.81,2.54,2.54,0,0,1,4.38-1.75,2.32,2.32,0,0,1,.73,1.75,2.61,2.61,0,0,1-.73,1.86m-1-8.25a5.07,5.07,0,0,0-5.26-5.27A5.09,5.09,0,0,0,33,32a5.1,5.1,0,0,0,5.28,5.27A5.08,5.08,0,0,0,33,42.49m70.87,41.37a2.67,2.67,0,0,1-.79,1.81,2.42,2.42,0,0,1-1.79.7,2.6,2.6,0,0,1-1.81-.77,2.42,2.42,0,0,1-.73-1.74A2.46,2.46,0,0,1,99.49,82,2.69,2.69,0,0,1,103,82a2.66,2.66,0,0,1,.79,1.88m-1.49-9.21a2.55,2.55,0,0,1-2.12,2.93.93.93,0,0,1-.42.07,2.61,2.61,0,0,1-2.52-2.1,2.57,2.57,0,0,1,2.09-3,2.65,2.65,0,0,1,3,2.11M69.49,56.34a2.66,2.66,0,0,1,3.6,0,2.35,2.35,0,0,1,.78,1.81A2.52,2.52,0,0,1,73.09,60a2.59,2.59,0,0,1-1.75.7,2.51,2.51,0,0,1-1.79-.7,2.67,2.67,0,0,1-.8-1.87,2.82,2.82,0,0,1,.74-1.81m-13.83,0a2.84,2.84,0,0,1,.71,1.81A2.65,2.65,0,0,1,55.59,60a2.56,2.56,0,0,1-1.81.7,2.53,2.53,0,0,1-2.53-2.57A2.42,2.42,0,0,1,52,56.34a2.7,2.7,0,0,1,3.63,0M41.08,39.06a2.54,2.54,0,0,1-.8-1.82A2.58,2.58,0,0,1,41,35.51a2.6,2.6,0,0,1,4.46,1.73,2.63,2.63,0,0,1-.8,1.82,2.57,2.57,0,0,1-1.8.77,2.37,2.37,0,0,1-1.8-.77m5.41,7.7a2.48,2.48,0,0,1-2.22-1.31A2.59,2.59,0,0,1,45.36,42,2.49,2.49,0,0,1,48.78,43a2.58,2.58,0,0,1-1.08,3.49,2.84,2.84,0,0,1-1.21.23m3.68,7a2.6,2.6,0,0,1-2.29-1.38A2.48,2.48,0,0,1,49,49,2.56,2.56,0,0,1,52.46,50a2.65,2.65,0,0,1-1.08,3.44,2.36,2.36,0,0,1-1.21.28m12.4,25.34A11,11,0,0,0,51.15,67.67a11,11,0,0,0,11.42-11.4A11,11,0,0,0,74,67.67,11,11,0,0,0,62.57,79.08M77.25,52.36A2.58,2.58,0,0,1,75,53.74a2.31,2.31,0,0,1-1.21-.28A2.66,2.66,0,0,1,72.67,50,2.56,2.56,0,0,1,76.17,49a2.5,2.5,0,0,1,1.08,3.41m3.62-6.91a2.54,2.54,0,0,1-2.24,1.31,2.9,2.9,0,0,1-1.21-.23A2.59,2.59,0,0,1,76.34,43,2.5,2.5,0,0,1,79.77,42a2.59,2.59,0,0,1,1.1,3.5m3.18-6.39a2.39,2.39,0,0,1-1.81.77,2.56,2.56,0,0,1-1.81-4.39,2.72,2.72,0,0,1,3.68.07,2.52,2.52,0,0,1,.72,1.73,2.48,2.48,0,0,1-.78,1.82m4.08-1.86a5.41,5.41,0,0,0,5.61-5.62,5.43,5.43,0,0,0,5.62,5.62,5.43,5.43,0,0,0-5.62,5.62,5.41,5.41,0,0,0-5.61-5.62m4.75,11.68a2.58,2.58,0,0,1,.71-1.82,2.79,2.79,0,0,1,3.69,0A2.93,2.93,0,0,1,98,48.88a2.74,2.74,0,0,1-.78,1.86,2.61,2.61,0,0,1-1.8.72,2.66,2.66,0,0,1-1.82-.77,2.4,2.4,0,0,1-.71-1.81M94.38,58a2.52,2.52,0,0,1,2.1-3,2.63,2.63,0,0,1,3,2.12,2.6,2.6,0,0,1-2.1,2.94,1.48,1.48,0,0,1-.43,0A2.52,2.52,0,0,1,94.38,58m3.56,5.78a2.64,2.64,0,0,1,2.94,2.11,2.52,2.52,0,0,1-2.11,2.94.85.85,0,0,1-.41.07,2.5,2.5,0,0,1-2.52-2.17,2.57,2.57,0,0,1,2.1-3m3.79,34.77a5.09,5.09,0,0,0-5.29-5.27A5.09,5.09,0,0,0,101.73,88,5.08,5.08,0,0,0,107,93.3a5.09,5.09,0,0,0-5.27,5.27"/></g></g></svg>