<?xml version="1.0" encoding="UTF-8"?>
<svg id="_レイヤー_1" data-name="レイヤー 1" xmlns="http://www.w3.org/2000/svg" viewBox="0 0 87.84 112.39">
  <defs>
    <style>
      .cls-1 {
        fill: #44af35;
      }
    </style>
  </defs>
  <g>
    <path class="cls-1" d="m9.27,99.22l2.3,2.68c-.4,2.03-.9,4.06-2.62,6.01-1.32,1.49-3.63,3.08-6.88,3.64l-.97-1.98c6.55-1.14,7.78-4.8,8.29-8.28H0v-2.08h9.27Zm1.14-1.89c.73.83,1.22,1.6,1.87,2.82l-1.08.76c-.57-1.2-.98-1.85-1.79-2.88l1-.7Zm2.25-.47c.75.9,1.17,1.63,1.79,2.89l-1.09.73c-.56-1.25-.92-1.87-1.71-2.95l1.01-.67Z"/>
    <path class="cls-1" d="m17.43,109.1c3.72-.43,6.42-2.08,8.02-7.1l1.9,1.13c-2.01,5.41-5.01,8.07-12.16,8.31v-13.06h2.24v10.73Z"/>
    <path class="cls-1" d="m36.58,111.6h-2.25v-6.71c-2.55,1.58-4.65,2.3-5.53,2.58l-1.05-1.87c6.74-2.11,10.35-6.48,11.32-7.67l1.9,1.32c-.62.68-2.12,2.38-4.39,4.09v8.26Z"/>
    <path class="cls-1" d="m50.99,99.22l2.3,2.68c-.4,2.03-.9,4.06-2.62,6.01-1.32,1.49-3.63,3.08-6.88,3.64l-.97-1.98c6.55-1.14,7.78-4.8,8.29-8.28h-9.4v-2.08h9.27Zm1.14-1.89c.73.83,1.22,1.6,1.87,2.82l-1.08.76c-.57-1.2-.98-1.85-1.79-2.88l1-.7Zm2.25-.47c.75.9,1.17,1.63,1.79,2.89l-1.09.73c-.56-1.25-.92-1.87-1.71-2.95l1.01-.67Z"/>
    <path class="cls-1" d="m70.97,112.39c-1.39-.36-3.82-1.06-6.31-2.87-1.19.87-3.2,2.09-6.42,2.87l-1.03-1.98c1.68-.33,3.66-.87,5.85-2.27-1.94-2.03-2.96-4.04-3.71-6.71h-2.16v-1.95h6.4v-2.09h2.08v2.09h6.44v1.95h-2.23c-.6,2.11-1.51,4.46-3.65,6.71.86.57,2.76,1.68,5.87,2.23l-1.13,2.01Zm-9.51-10.95c.97,3.23,2.39,4.71,3.17,5.45,2.14-2.05,2.85-4.61,3.09-5.45h-6.26Z"/>
    <path class="cls-1" d="m87.84,100.19h-11.91v5.28c0,4.1-1.11,6.04-1.59,6.85l-1.62-1.46c1.24-2.12,1.3-4.34,1.3-5.41v-6.99h5.64v-1.08h2.05v1.08h6.12v1.73Zm-.22.87v1.51h-4.82v.76h4.12v5.07h-4.12v.79h4.98v1.63h-4.98v1.55h-1.84v-1.55h-5.06v-1.63h5.06v-.79h-4.03v-5.07h4.03v-.76h-4.71v-1.51h4.71v-.62h1.84v.62h4.82Zm-8.88,3.42v.86h2.22v-.86h-2.22Zm0,1.87v.87h2.22v-.87h-2.22Zm4.06-1.87v.86h2.3v-.86h-2.3Zm0,1.87v.87h2.3v-.87h-2.3Z"/>
  </g>
  <path class="cls-1" d="m71.94,49.11c3.43-3.98,5.09-8.71,5.09-13.99,0-6.02-2.13-11.2-6.48-15.46-4.26-4.26-9.35-6.39-15.37-6.39h-20.36v-7.43h2.08c.26,0,.47-.19.47-.41V.41c0-.23-.21-.41-.47-.41h-14.5c-.26,0-.47.18-.47.41v5.01c0,.23.21.41.47.41h2.08v7.43h-13.97c-.31,0-.57.26-.57.57v12.49c0,.31.26.57.57.57h5.75c.31,0,.57-.26.57-.57v-2.13h8.22v2.7h-1.72v40.92s1.99,2.07,5.77,3.6c2.3,1.13,6.87,2.28,6.87,2.28V26.89h-1.72v-2.7h20.56c3.06,0,5.56,1.11,7.69,3.34,2.13,2.13,3.24,4.72,3.24,7.68s-.93,5.37-2.87,7.41c-3.06-1.3-6.11-1.95-9.35-1.95h-12.69v10.93h12.31c3.8,0,7.04,1.39,9.72,4.26,2.69,2.87,3.98,5.93,3.98,9.35,0,3.24-1.39,6.39-4.08,9.26-2.69,2.87-5.93,4.35-9.63,4.35h-13.34c-6.02,0-11.48-1.85-16.48-5.46v12.69c5.09,2.5,10.56,3.71,16.39,3.71h13.8c6.57,0,12.32-2.5,17.22-7.41,4.91-5,7.41-10.83,7.41-17.41,0-5.93-2.04-11.21-6.2-15.84Z"/>
</svg>