<svg xmlns="http://www.w3.org/2000/svg" viewBox="0 0 78.81 80"><g data-name="Layer 2"><path d="M58.86 32a5.45 5.45 0 01-.92-3c0-.83.28-2 2.23-4.12 3.54-3.88 7.49-8.16 7.31-8.34S63 20.38 59.13 23.9c-1.21 1.11-3 2.43-4 2.43a7.75 7.75 0 01-3.35-1.1 8.37 8.37 0 00-.78-.43c-.47-.26-.95-.51-1.44-.74a22.84 22.84 0 00-9.7-2.17C27.49 21.87 17 31.91 17 44.26a21.79 21.79 0 003.61 12 2.69 2.69 0 00.2.38 5.45 5.45 0 01.92 3c0 .83-.28 2-2.23 4.17-3.43 3.73-7.19 7.8-7 8s4.24-3.56 8-7c1.21-1.11 3-2.43 4-2.43a7.71 7.71 0 013.34 1.1c.67.43 2.48 1.24 2.48 1.24a22.75 22.75 0 009.44 2.06c12.34 0 22.83-10.05 22.83-22.39A21.73 21.73 0 0058.89 32zm-19 34a13.91 13.91 0 01-10.66-5.34 3.92 3.92 0 01-.75-2.43 7 7 0 011.39-2.72c3.73-4.09 8.33-9.07 8.14-9.26s-4.68 4-8.56 7.53a3.67 3.67 0 01-3 .92 3.09 3.09 0 01-1.45-2 29 29 0 01-1.23-8.43c0-12 7-21.75 16.11-21.75a13.34 13.34 0 019 3.6c.18.17.56.52.89.86.16.16.31.32.46.49a4.44 4.44 0 011.09 2.9 7.58 7.58 0 01-1.85 3.27c-3.57 3.84-7.61 8.2-7.44 8.36s3.52-2.9 7-6.06l1.24-1.13a3.17 3.17 0 013-1c.81.34 1.32 1.37 1.77 3.08a29.11 29.11 0 01.91 7.29C55.94 56.25 49 66 39.84 66zM1.2 74.46h4.24v.09L2 79.74h1.29a3.15 3.15 0 001.61-.31 1.87 1.87 0 00.66-.77 2.11 2.11 0 00.15-.5h.09l-.12 1.71H1v-.09l3.46-5.2H3.32a4.08 4.08 0 00-1 .09 1.66 1.66 0 00-.64.31 1.44 1.44 0 00-.35.4 1.65 1.65 0 00-.16.53h-.06zm28.05 0l.07 1.31h-.09a1.62 1.62 0 00-.17-.55 1.11 1.11 0 00-.34-.38 1.17 1.17 0 00-.44-.2 3.1 3.1 0 00-.68-.06h-.9V77h.23a2.51 2.51 0 00.55 0 .56.56 0 00.29-.17.77.77 0 00.17-.27A3.72 3.72 0 0028 76h.09v2.13H28a2.43 2.43 0 00-.1-.5.83.83 0 00-.2-.31.67.67 0 00-.3-.19 1.68 1.68 0 00-.49-.06h-.21v1.72a1.43 1.43 0 00.11.41.88.88 0 00.41.42 1.67 1.67 0 00.73.13 2.26 2.26 0 00.79-.12 1.19 1.19 0 00.53-.37 1.9 1.9 0 00.23-.39 3.71 3.71 0 00.16-.57h.09l-.05 1.58H25v-.09a1.09 1.09 0 00.36-.07.53.53 0 00.25-.17.59.59 0 00.17-.32 2.83 2.83 0 000-.6V75.7a2.83 2.83 0 000-.6.59.59 0 00-.17-.32.66.66 0 00-.24-.17 1.68 1.68 0 00-.37-.06v-.09zm21.27 2.76v1.4a3 3 0 000 .6.66.66 0 00.17.32.7.7 0 00.25.17 1.52 1.52 0 00.37.07v.09h-2.49v-.09a1.63 1.63 0 00.37-.07.7.7 0 00.25-.17.66.66 0 00.17-.32 3 3 0 000-.6V75.7a3 3 0 000-.6.66.66 0 00-.17-.32.7.7 0 00-.25-.17 1.68 1.68 0 00-.37-.06v-.09h2.54a3.13 3.13 0 011 .17 1.23 1.23 0 01.82 1.2 1.18 1.18 0 01-.46 1 1.29 1.29 0 01-.32.19 3.45 3.45 0 01-.46.13 1.18 1.18 0 01.35.21.74.74 0 01.17.21c0 .08.12.23.23.44.23.48.41.83.53 1.06a3.51 3.51 0 00.3.48.7.7 0 00.19.17 1.2 1.2 0 00.26.07v.09h-1.36l-.12-.28-.28-.6c-.17-.38-.34-.71-.5-1a2 2 0 00-.47-.59.63.63 0 00-.23-.12 1.26 1.26 0 00-.3 0zm0-.09h.15a3.63 3.63 0 00.7 0 1 1 0 00.4-.23 1.37 1.37 0 00.29-1.57 1.21 1.21 0 00-.33-.46 1 1 0 00-.4-.19 3.48 3.48 0 00-.65 0h-.16zm21.93.07a2.73 2.73 0 01.29-1.2 2.79 2.79 0 01.83-1 3 3 0 01.88-.48 2.84 2.84 0 011-.17 2.72 2.72 0 011.18.27 3.17 3.17 0 011 .75 2.68 2.68 0 01.69 1.81 2.74 2.74 0 01-.18 1 2.86 2.86 0 01-.53.86 3 3 0 01-1 .75 3 3 0 01-1.22.26 3 3 0 01-1.21-.26 2.83 2.83 0 01-1-.73 2.53 2.53 0 01-.5-.84 2.65 2.65 0 01-.23-1.02zm1 .06A3 3 0 0074 79.2a1.85 1.85 0 00.59.51 1.75 1.75 0 001.46 0 1.86 1.86 0 00.6-.51 3.05 3.05 0 00.63-2 4 4 0 00-.14-1.2 2.79 2.79 0 00-.48-1 1.47 1.47 0 00-.57-.47 1.64 1.64 0 00-.73-.15 1.67 1.67 0 00-.73.14 1.78 1.78 0 00-.57.48 2.88 2.88 0 00-.48 1 4.4 4.4 0 00-.17 1.26zM2.43 2.09v8.43A7.27 7.27 0 002.54 12a1.81 1.81 0 00.41.79 1.65 1.65 0 00.62.4 3 3 0 00.9.16v.22H0v-.22a3 3 0 00.9-.16 1.62 1.62 0 00.61-.4 1.62 1.62 0 00.41-.79A6.71 6.71 0 002 10.52V3.37a6.67 6.67 0 00-.11-1.46 1.62 1.62 0 00-.41-.79 1.51 1.51 0 00-.6-.4A3 3 0 000 .56V.34h3.73l7.87 10v-7a7.41 7.41 0 00-.11-1.47 1.72 1.72 0 00-.42-.79 1.62 1.62 0 00-.61-.4 3 3 0 00-.9-.16V.34H14v.22a2 2 0 00-1.51.56 1.63 1.63 0 00-.42.79A7.36 7.36 0 0012 3.37v10.19h-.43zM16.38 7a6.58 6.58 0 01.7-3 7 7 0 012-2.43A8.23 8.23 0 0121.26.41 7 7 0 0123.59 0a6.84 6.84 0 012.89.65 7.67 7.67 0 012.44 1.85 6.51 6.51 0 011.7 4.41 6.76 6.76 0 01-.44 2.4 6.88 6.88 0 01-1.3 2.1 7.31 7.31 0 01-2.48 1.83 7 7 0 01-3 .65 7.14 7.14 0 01-3-.63 6.89 6.89 0 01-2.42-1.78 6.5 6.5 0 01-1.24-2.05A6.92 6.92 0 0116.38 7zm2.34.14a7.37 7.37 0 001.54 4.74 4.41 4.41 0 001.45 1.26 4.28 4.28 0 003.57 0 4.55 4.55 0 001.47-1.26 7.46 7.46 0 001.53-4.78 10.16 10.16 0 00-.42-2.95 7.17 7.17 0 00-1.19-2.36A3.93 3.93 0 0025.29.67a4.19 4.19 0 00-1.8-.36 4.1 4.1 0 00-1.78.36 4 4 0 00-1.39 1.16 7 7 0 00-1.18 2.36 10.69 10.69 0 00-.42 2.99zM32.94.34h6.39v.22a3.5 3.5 0 00-1 .22 1.14 1.14 0 00-.49.46 1.26 1.26 0 00-.18.66 1.94 1.94 0 000 .44c0 .13.13.41.29.85L40.82 11l2.78-6.85A6.61 6.61 0 0044.19 2a2.16 2.16 0 00-.12-.68 1.22 1.22 0 00-.31-.5 1.06 1.06 0 00-.43-.23 2.35 2.35 0 00-.6-.07V.34H47v.22a2.36 2.36 0 00-.92.26 2.63 2.63 0 00-.75.65 4.74 4.74 0 00-.51.85c-.18.36-.42.91-.73 1.66l-4 9.58h-.4l-3.86-9.9a9.93 9.93 0 00-1.21-2.47A1.66 1.66 0 0034 .71a3.07 3.07 0 00-1-.15zm28.11 0l.16 3.2H61a4.06 4.06 0 00-.41-1.35 2.9 2.9 0 00-.85-.94 2.68 2.68 0 00-1.08-.47A8.1 8.1 0 0057 .64h-2.21v5.81h.58a6.2 6.2 0 001.33-.11 1.52 1.52 0 00.73-.42 1.86 1.86 0 00.4-.66 5.91 5.91 0 00.22-1.13h.22v5.19H58a5.46 5.46 0 00-.26-1.2 2.26 2.26 0 00-.47-.78 1.64 1.64 0 00-.76-.45 3.89 3.89 0 00-1.18-.15h-.55V9a17.71 17.71 0 00.07 1.93 3.1 3.1 0 00.26 1 2.15 2.15 0 001 1 4.23 4.23 0 001.78.32 5.77 5.77 0 002-.29 3 3 0 001.28-.92 3.45 3.45 0 00.56-1 8.37 8.37 0 00.41-1.4h.22l-.13 3.85h-11.6v-.22a3 3 0 00.9-.16 1.65 1.65 0 00.62-.4 1.71 1.71 0 00.41-.79 7.41 7.41 0 00.11-1.47V3.38a7.41 7.41 0 00-.11-1.47 1.71 1.71 0 00-.41-.79 1.62 1.62 0 00-.61-.4 3 3 0 00-.91-.16V.34zm6.07 13.22v-.23a2 2 0 001.51-.55A1.62 1.62 0 0069 12a7.41 7.41 0 00.11-1.47V3.38A7 7 0 0069 1.86a1.55 1.55 0 00-.45-.79A1.54 1.54 0 0068 .7a2.73 2.73 0 00-.85-.14V.34h6.19v.22a3.11 3.11 0 00-.87.15 1.64 1.64 0 00-.61.36 1.78 1.78 0 00-.44.81 6.77 6.77 0 00-.12 1.5V9c0 .86 0 1.5.07 1.92a3.29 3.29 0 00.26 1 2.17 2.17 0 001 1 4.21 4.21 0 001.77.32 5.55 5.55 0 002-.3 3.07 3.07 0 001.29-1 4 4 0 00.56-1 9 9 0 00.4-1.45h.23l-.13 4z" fill="#231815" data-name="Layer 1"/></g></svg>