<svg xmlns="http://www.w3.org/2000/svg" viewBox="0 0 80 80"><path d="M0 29.62s10.63-8.05 17.68-12.5c0 0 1.83-1.15 2.91 1.62 1.07 2.78 3.12 12.75 6.41 13.96 3.29 1.2 8.06-1.21 8.91-1.77 1.42-.94 4.96-3.56 3.88-7.51-1.35-5.08-7.48-11.89-7.48-11.89s-2.01-1.82.05-3.09C34.06 7.39 44.24 2.89 50.7.36c0 0 6.49 13.92 7.65 16.06 1.16 2.13 1.98 3.32 1.6 4.01-.39.68-3.22 1.59-5.11 2.12-1.9.55-5.18 2.34-5.21 5.53-.02 3.18 2.57 9.66 6.25 10.18 3.68.53 7.9-3.65 9.07-4.31 1.14-.66 2.32-1.58 3.15-.11.81 1.49 8.84 13.73 11.93 17.19 0 0-9.21 4.42-11.7 5.91-1.57.93-4.84 2.53-7.13 3.61-2.05.95-2.34-1.01-2.61-1.75-1.5-4.15-2.85-7.41-4.82-10.17-1.11-1.55-4.84-4.29-10.48-.45-5.66 3.84-3.79 9.18-2.39 11.3 1.39 2.11 5.7 6.12 6.35 6.77 1.11 1.13.89 2.36-.74 3.35-1.61.97-17.24 10.69-17.24 10.69L0 29.62z" fill-rule="evenodd" clip-rule="evenodd" fill="#e50012"/></svg>