<svg xmlns="http://www.w3.org/2000/svg" viewBox="0 0 72.33 59.25"><g id="レイヤー_2" data-name="レイヤー 2"><g id="レイヤー_1-2" data-name="レイヤー 1"><path d="M9.18,21.53c.89.63,1,1.49.86,2.69S6.44,46.27,5.83,49s-1.32,6.18-2.12,6.88S1.58,57.39,2,58.33c.54,1.16,2.47.57,4,.38a100.18,100.18,0,0,1,11.87,0,34.48,34.48,0,0,0,7.23.29c1.17-.23,1.32-1.52-.05-2.1A1.64,1.64,0,0,1,24,55.34c.09-.85,2.14-10.91,2.31-11.47.31-.93,1-1.19,2-.52S33,48.63,34,49.45s1.43,1,2.65.09,5.12-5.56,5.62-6.07c.63-.67,1.56-.71,1.75.4s2.58,10.86,2.36,12.29c-.09.59-1.2,1.07-1.42,1.86-.37,1.18,1.19,1.35,2.5,1.16,1.68-.25,11.33-.38,13.81-.38s7.71.59,9.12.28c1-.22,1.93-1.36-.4-2.69-.61-.37-1-1.06-1.48-2.74S63.28,24.8,63.13,23.93s-.33-2,.44-2.51C68,18.24,73,10,72.25,1.53c-.15-1.71-1.79-1.91-2.71-.26A20.65,20.65,0,0,1,56.19,11c-3.4.75-10.73.58-11.78.51a2.59,2.59,0,0,0-2.74,1.76c-.69,1.51-5,11.63-5.38,12.24-.47.8-1.09.86-1.66.05s-4.76-11-5.4-12.08a3,3,0,0,0-2.87-1.82C23.89,12,17.92,12,15,11.18,10.81,10,5.7,7.55,2.65,1.09,1.9-.49.4-.31.19,1.37-1.18,13.53,5.16,18.65,9.18,21.53Z"/></g></g></svg>