<svg xmlns="http://www.w3.org/2000/svg" viewBox="0 0 52.97 80"><g data-name="Layer 2"><g data-name="Layer 1"><path d="M53 34.76V15.25h-6.45V0L25.43 15.25H0v42.62h29l-3.6 2.62H0V80h53V38.36h-4.76v-3.6zm-27.54 3.6h-5.95v-3.6h10.88z" fill="#231815"/><path d="M25.27 31.99V18.04H2.76v37.01h22.51V41.09h-8.53v-9.1h8.53zM2.76 63.26h22.51v13.96H2.76zM27.32 17.3L44.36 4.91v11.95L27.32 29.95V17.3zm.03 24.37l16.97-12.28v33.49l-17 12.38v-11.4l7.9-5.78V47.34l-7.9 5.74.03-11.41z" fill="#ffe100"/><path d="M46.48 17.98h3.61l.06 13.99h-3.68v-6.72L37.2 32l-9.11-.03 18.39-13.99zM28.1 55.09l5.11-3.72.01 3.71-5.12.01zm18.37-13.95l3.65-.01.01 36.09H28.1l18.37-13.35V41.14z" fill="#ec6c00"/></g></g></svg>