<svg id="_レイヤー_1" data-name="レイヤー 1" xmlns="http://www.w3.org/2000/svg" viewBox="0 0 170.48 212.6"><defs><radialGradient id="_名称未設定グラデーション_119" data-name="名称未設定グラデーション 119" cx="4.05" cy="-93.56" fx="4.05" fy="-93.56" r="150.27" gradientTransform="matrix(.78 0 0 .78 31.12 148.32)" gradientUnits="userSpaceOnUse"><stop offset="0" stop-color="#fff"/><stop offset=".17" stop-color="#fae8b7"/><stop offset=".37" stop-color="#f7d15c"/><stop offset=".94" stop-color="#ffc629"/></radialGradient><style>.cls-2{fill:#ffc629}</style></defs><path class="cls-2" d="M19.58 165.1h8.33v2.22h-5.5v3.48h5.04v2.22h-5.04v3.96h5.54v2.22h-8.37v-14.12zm15.69 0h3.2l5.54 14.12h-3.13l-1.21-3.24h-5.72l-1.23 3.24h-2.93l5.5-14.12zm1.56 2.83h-.04l-2.04 5.82h4.13l-2.04-5.82zm9.15-2.83h3.05c3.03 0 6.65-.1 6.65 3.82 0 1.66-1.11 3.03-2.91 3.28v.04c.77.06 1.21.83 1.5 1.45l2.26 5.52h-3.16l-1.7-4.41c-.4-1.05-.77-1.45-1.96-1.45h-.91v5.86h-2.83v-14.12zm2.83 6.03h.93c1.4 0 2.99-.2 2.99-1.96s-1.58-1.84-2.99-1.84h-.93v3.8zm12.33-3.8H57.1v-2.22h10.92v2.22h-4.04v11.89h-2.83v-11.89zm9.08-2.23h2.83v5.7h5.66v-5.7h2.83v14.12h-2.83v-6.19h-5.66v6.19h-2.83V165.1zm27.79 2.59c-.89-.38-1.88-.61-2.87-.61s-2.22.42-2.22 1.96c0 2.45 6.19 1.41 6.19 6.15 0 3.1-2.45 4.27-5.3 4.27-1.54 0-2.23-.2-3.62-.55l.26-2.55c.97.53 2.08.87 3.2.87s2.51-.55 2.51-1.82c0-2.69-6.19-1.58-6.19-6.25 0-3.15 2.45-4.31 4.93-4.31 1.21 0 2.35.16 3.38.5l-.26 2.33zm6.63-.36h-4.04v-2.22h10.92v2.22h-4.04v11.89h-2.83v-11.89zm12.31-2.23h3.2l5.54 14.12h-3.13l-1.21-3.24h-5.72l-1.23 3.24h-2.93l5.5-14.12zm1.56 2.83h-.04l-2.04 5.82h4.13l-2.04-5.82zm8.75-2.83h3.05c3.03 0 6.65-.1 6.65 3.82 0 1.66-1.11 3.03-2.91 3.28v.04c.77.06 1.21.83 1.5 1.45l2.26 5.52h-3.16l-1.7-4.41c-.4-1.05-.77-1.45-1.96-1.45h-.91v5.86h-2.83v-14.12zm2.83 6.03h.93c1.4 0 2.99-.2 2.99-1.96s-1.58-1.84-2.99-1.84h-.93v3.8zM25.68 183.11h5.81v24.42h11.25v4.57H25.67v-28.99zm21.38 0h5.81v16.74c0 4.94 1.58 8.18 6.02 8.18s6.02-3.24 6.02-8.18v-16.74h5.81v18.52c0 7.77-4.4 10.96-11.84 10.96s-11.84-3.2-11.84-10.96v-18.52zm29.9 0h7.14l11.05 21.68h.08v-21.68h5.56v28.99h-7.1L82.6 190.42h-.08v21.68h-5.56v-28.99zm38.57 0h6.56l11.38 28.99h-6.44l-2.49-6.65h-11.75l-2.53 6.65h-6.02l11.29-28.99zm3.2 5.81h-.08l-4.19 11.96h8.47l-4.19-11.96z"/><path d="M138.33 32.56C124.6 12.88 101.81 0 75.99 0 34.02 0 0 34.02 0 75.98s34.02 76 75.99 76 75.99-34.02 75.99-76c0-15.73-4.78-30.34-12.97-42.46l-2.57-.55 1.89-.41zm7.7 42.38l-2.43.52v.28c0 37.49-30.38 67.88-67.86 67.88-14.44 0-27.81-4.52-38.81-12.2 4.52 1.13 9.25 1.74 14.12 1.74 32.01 0 57.96-25.95 57.96-57.97S83.06 17.24 51.05 17.24c-3.96 0-7.83.4-11.57 1.16A67.576 67.576 0 0175.74 7.89c37.03 0 67.12 29.66 67.83 66.52l2.45.53z" fill="url(#_名称未設定グラデーション_119)"/><path d="M75.75 7.88a67.49 67.49 0 00-36.26 10.51 58.06 58.06 0 0111.57-1.16c32.01 0 57.96 25.95 57.96 57.95s-25.95 57.97-57.96 57.97c-4.87 0-9.6-.61-14.12-1.74 11 7.68 24.37 12.2 38.81 12.2 37.48 0 67.86-30.38 67.86-67.88v-.28l-6.58 1.42-1.94 9.01-1.94-9.01-9.01-1.94 9.01-1.94 1.94-9.01 1.94 9.01 6.56 1.41c-.71-36.86-30.8-66.52-67.83-66.52zm52.66 45.4l11.36 2.45-11.36 2.45-2.45 11.36-2.45-11.36-11.36-2.45 11.36-2.45 2.45-11.36 2.45 11.36z" fill="#fff"/><path class="cls-2" d="M156.48 29.94l-3.02-14-3.02 14-12.11 2.61c.23.32.46.64.68.96l11.43 2.46 3.02 14 3.02-14 14-3.02-14-3.02z"/><path class="cls-2" d="M136.45 32.96l2.57.55c-.22-.33-.46-.64-.68-.96l-1.89.41zm-24.3 22.77l11.36 2.45 2.45 11.36 2.45-11.36 11.36-2.45-11.36-2.45-2.45-11.36-2.45 11.36-11.36 2.45zm33.88 19.2l-2.45-.53c0 .35.03.7.03 1.05l2.43-.52zm-10.95-10.95l-1.94 9.01-9.01 1.94 9.01 1.94 1.94 9.01 1.94-9.01 6.58-1.42c0-.35-.02-.7-.03-1.05l-6.56-1.41-1.94-9.01z"/></svg>