<svg version="1.1" id="レイヤー_1" xmlns="http://www.w3.org/2000/svg" x="0" y="0" viewBox="0 0 77.44 80" xml:space="preserve"><style>.st1{fill:#fff}.st2{fill:#231815}</style><path d="M77.44 39.19c0 21.38-17.33 38.72-38.72 38.72S0 60.57 0 39.19C0 17.8 17.33.47 38.72.47S77.44 17.8 77.44 39.19z" fill="#e50012"/><path class="st1" d="M31.79 69.11l.34-1.24-.9-.24-.34 1.23-.57-.15.34-1.24-.89-.24-1.69 6.22.88.24 1.13-4.13.57.16-1.13 4.13.9.24 1.13-4.13 1.03.28-.29-1zm-2.67-1.26l.35-.91c-.4-.06-.74-.06-1-.02-.8.14-1.38.7-1.76 1.68l-1.48 3.82.87.34 1.48-3.82c.16-.42.35-.72.56-.88.24-.21.57-.28.98-.21zm-5.03-3.13c-.15-.09-.3-.14-.45-.17-.47-.09-.82.06-1.04.45l-.14.25c-.12.21-.15.41-.11.6.02.13.09.28.22.43-.6.24-1.06.64-1.38 1.19-.58 1.03-.53 2.08.17 3.15.19.3.37.5.53.59l2.26-3.96.93.53-.04-1.04-.45-.26.63-1.11-1.13-.65zm-2.26 4.71c-.04-.19-.06-.29-.06-.31-.04-.46.05-.88.27-1.26.2-.36.51-.63.93-.83l.28-.1-1.42 2.5zm1.95-3.42l-.36-.21c-.1-.06-.13-.13-.09-.2l.05-.08c.04-.08.12-.09.21-.03l.37.21-.18.31zm-1.83-2.35c-.02-.34-.19-.62-.49-.85-.31-.23-.63-.31-.96-.24-.31.07-.58.26-.82.58l-3.15 4.24.75.55 3.14-4.23c.16-.21.32-.26.48-.14.15.11.15.27-.01.49l-3.14 4.23.75.55 3.15-4.24c.22-.31.32-.62.3-.94zm-3.02-2.7l-2.55 2.7.23-1.02 1.93-2.05-.68-.64-4.42 4.7.68.64 1.3-1.39-.58 2.42.21.12 4.55-4.85zm-2.92.3l.33-.99-.34-.4.98-.82-.6-.71-.98.82-.32-.38c-.04-.07-.07-.11-.07-.13 0-.01.04-.05.11-.11l.84-.7-.6-.71-.83.69c-.42.35-.56.72-.43 1.11-.59 0-1.2.25-1.8.75l-1.89 1.58.6.71 1.89-1.58c.55-.46 1.12-.65 1.71-.57l-3.18 2.65.6.71 3.29-2.74.69.82zm-1.51-5.07c.06-.31 0-.63-.2-.94-.19-.3-.45-.48-.78-.56-.31-.07-.62-.01-.92.19l-3.65 2.36c-.29.19-.47.45-.54.77-.06.32 0 .63.19.92.2.3.45.49.77.57.31.07.62.01.93-.18l3.65-2.36c.3-.2.48-.45.55-.77zm-1.22.09l-3.35 2.16c-.25.16-.43.16-.54-.01-.06-.1-.09-.18-.06-.23.02-.08.11-.17.27-.27l3.35-2.16c.25-.16.43-.16.54.01.05.08.07.16.06.23-.04.09-.12.18-.27.27zm-2.58-2.36l.6-.85-.21-.48 1.18-.51-.37-.85-1.18.51-.23-.55 1.17-.51-.36-.83-5.92 2.56.36.84 3.93-1.71.24.55-3.93 1.7.37.86 3.93-1.71zm-1.07-4.85c.32.07.57.29.77.65l.93-.29c-.21-.35-.41-.61-.62-.79-.61-.54-1.41-.65-2.41-.33l-3.9 1.23.28.89 3.91-1.23c.43-.14.78-.18 1.04-.13zm-1.69-2.55l.79-.68-.08-.51 1.26-.2-.2-1.28c-.03-.17-.08-.32-.15-.46-.23-.42-.56-.6-1-.53l-.28.04c-.24.04-.41.13-.53.29-.09.1-.16.24-.2.44-.57-.32-1.16-.43-1.79-.33-1.17.19-1.95.89-2.36 2.1-.11.34-.16.6-.13.78l4.5-.72.17 1.06zm.6-2.72l.1-.02c.09-.01.14.03.16.14l.07.42-.37.07-.07-.41c-.01-.12.02-.19.11-.2zm-3.92 1.22c.12-.15.19-.23.21-.24.33-.32.71-.51 1.15-.58.41-.06.82 0 1.23.21l.25.16-2.84.45zm4.58-3.51c.25-.23.37-.53.36-.92-.01-.39-.15-.69-.42-.9-.25-.2-.57-.29-.96-.27l-5.28.19.03.93 5.27-.19c.26-.01.4.09.41.28.01.19-.12.28-.39.29l-5.27.19.03.93 5.27-.19c.4-.01.71-.12.95-.34zm.22-4.05l-3.71-.29.95-.46 2.8.22.07-.92-6.43-.51-.07.92 1.9.15-2.25 1.06.03.24 6.63.52zm-2.05-2.13l.98-.36.1-.51 1.25.26.19-.91-1.25-.26.1-.49c.03-.08.05-.12.06-.14.01-.01.06 0 .16.02l1.07.22.19-.91-1.06-.22c-.53-.11-.91.01-1.13.36-.37-.47-.94-.78-1.71-.94l-2.41-.49-.21.92 2.42.49c.7.14 1.21.47 1.51.98l-4.06-.83-.19.91 4.2.85-.21 1.05zM5.3 29.65l4.12 1.38c.35.12.67.1.95-.05.29-.15.49-.39.6-.74.11-.34.09-.65-.05-.95-.14-.29-.38-.49-.72-.6l-4.12-1.38c-.33-.11-.65-.09-.94.06-.29.15-.49.39-.6.72-.11.34-.1.66.04.95.14.3.38.5.72.61zm.14-1.25c.04-.11.08-.18.14-.19.08-.03.2-.02.38.04l3.78 1.26c.28.09.39.24.33.43-.03.09-.08.15-.14.19-.08.03-.21.02-.38-.04l-3.78-1.26c-.29-.1-.4-.24-.33-.43zm4.34-1.8l1.04-.06.24-.46 1.13.6.44-.82-1.13-.6.28-.53 1.13.6.43-.81-5.7-3.02-.43.8L11 24.32l-.28.52-3.78-2.01-.44.82 3.78 2.01zm3.12-3.86c.14.29.13.63-.03 1.01l.81.55c.14-.38.22-.7.24-.98.04-.81-.37-1.5-1.24-2.09l-3.4-2.29-.52.77 3.4 2.29c.38.26.62.5.74.74zm.95-2.91l1.02.19.35-.38.95.86.88-.96c.12-.13.21-.26.27-.4.19-.44.12-.81-.21-1.11l-.22-.2c-.18-.16-.36-.24-.56-.24-.13-.01-.29.03-.47.12-.1-.64-.39-1.18-.85-1.6-.87-.8-1.91-.97-3.11-.53-.34.12-.56.25-.69.39l3.37 3.07-.73.79zm2.28-1.19c.08-.09.15-.1.22-.04l.07.07c.07.06.06.13-.01.21l-.29.31-.27-.25.28-.3zm-3.18-2.34c.19.01.3.01.32.01.45.06.84.24 1.17.54.31.28.51.64.6 1.09l.03.29-2.12-1.93zm5.6 1.39c.34.05.65-.04.94-.29.3-.25.44-.55.44-.89 0-.31-.13-.62-.39-.92l-3.44-4-.7.61 3.44 4c.17.2.18.37.03.5-.14.12-.3.08-.47-.12l-3.44-4-.7.61 3.44 4c.25.28.53.45.85.5zm3.3-2.36l-2.08-3.08.94.45 1.58 2.33.77-.52-3.62-5.34-.77.52 1.07 1.58-2.23-1.1-.16.17 3.73 5.51zm.35-2.91l.89.54.46-.24.59 1.14.83-.42-.59-1.14.44-.23c.08-.03.13-.04.15-.04.01.01.04.05.08.13l.5.97.83-.42-.49-.96c-.25-.48-.58-.7-.99-.66.13-.58.02-1.22-.34-1.92l-1.13-2.19-.83.41 1.13 2.19c.33.64.39 1.23.18 1.79l-1.89-3.69-.83.42 1.96 3.81-.95.51zm4.64-1.09c.13.34.34.58.63.71s.61.13.96.01c.33-.12.57-.33.71-.64.14-.29.14-.6.02-.94l-1.5-4.08c-.12-.33-.33-.56-.63-.69-.3-.13-.61-.14-.94-.02-.34.13-.58.33-.72.62s-.15.6-.02.94l1.49 4.09zm-.44-4.75c.11-.04.19-.04.24-.01.07.04.14.15.2.32l1.38 3.74c.1.28.06.46-.13.52-.09.03-.17.03-.24.01-.08-.05-.15-.15-.21-.32L26.27 7.1c-.1-.28-.06-.45.13-.52zm5.87-2.42l.79 4.21-.58.11-.8-4.21-.91.17.79 4.21-1.05.2.7.77.52-.1.23 1.26.92-.17-.24-1.26.59-.11.23 1.26.9-.17-1.19-6.34zm2.4 5.32l.08.98c.39-.12.69-.27.91-.42.66-.47.94-1.23.86-2.28l-.34-4.09-.93.08.34 4.09c.04.45 0 .8-.11 1.04-.14.28-.41.49-.81.6zm5.77-5.87c-.31-.18-.55-.28-.73-.3l-.3 4.55-1.06-.07.49.92.52.03-.08 1.28 1.3.08c.17.01.33 0 .48-.04.46-.13.71-.41.74-.86l.02-.29c.02-.24-.04-.43-.17-.58-.07-.11-.2-.21-.39-.29.44-.48.68-1.04.72-1.67.06-1.18-.45-2.1-1.54-2.76zm.42 5.46c-.01.09-.06.13-.18.12l-.43-.03.02-.36.42.03c.12.01.17.06.17.15v.09zm-.3-1.53l-.21.21.19-2.87a2.068 2.068 0 01.5 1.51c-.03.41-.19.8-.48 1.15zm3.23 3.13c.38.07.71 0 .97-.21.25-.2.4-.49.48-.88l.97-5.19-.91-.17-.97 5.18c-.05.26-.17.37-.37.34-.18-.03-.25-.18-.2-.44l.97-5.18-.91-.17-.97 5.19c-.07.38-.03.71.13.99.17.29.44.47.81.54zm3.09.56l1.1-3.55.24 1.02-.83 2.68.89.28 1.9-6.16-.89-.28-.56 1.82-.53-2.43-.24-.01-1.97 6.35zm2.63-.52l.47.21-.52 1.17.85.38.52-1.17.45.2c.07.04.11.07.12.09 0 .01-.02.06-.05.15l-.45 1 .85.38.44-.99c.22-.5.19-.89-.1-1.18.54-.26.97-.75 1.29-1.47l1.01-2.25-.85-.38-1 2.25c-.29.65-.72 1.07-1.28 1.26l1.7-3.78-.86-.38-1.75 3.91-.97-.44.13 1.04zm4.98 3.76c.31-.07.56-.26.74-.57l2.25-3.72c.18-.3.23-.61.15-.93-.08-.32-.27-.57-.57-.75-.31-.19-.62-.25-.94-.18-.31.07-.57.26-.75.57l-2.25 3.72c-.19.31-.25.63-.16.94.08.31.28.56.59.75.3.2.61.25.94.17zm-.45-.98a.32.32 0 01-.15-.18c-.01-.09.03-.21.12-.36l2.06-3.41c.15-.25.32-.33.49-.22.1.06.15.12.16.18.01.08-.03.2-.12.36l-2.06 3.41c-.16.25-.33.33-.5.22zm3.15 1.48l.4.35-.84.97.71.6.83-.97.45.39-.83.97.69.6 4.21-4.89-.69-.59-2.8 3.24-.45-.39 2.79-3.24-.7-.61-2.8 3.25-.8-.7zm3.25 2.88c-.32.08-.64-.01-.98-.25l-.71.67c.34.22.64.37.9.45.78.22 1.55-.03 2.31-.75l2.98-2.81-.64-.68-2.98 2.81c-.33.31-.62.49-.88.56zm2.63 1.56l-.41.96.3.42-1.05.73.74 1.06c.1.14.21.26.33.35.39.28.76.29 1.13.04l.24-.17c.19-.14.31-.3.35-.49.04-.13.04-.29-.01-.49.65.04 1.23-.12 1.75-.48.97-.68 1.37-1.65 1.2-2.92-.05-.35-.12-.61-.23-.76l-3.74 2.61-.6-.86zm3.64-.11c-.05.19-.07.29-.08.31a2.1 2.1 0 01-.78 1.02c-.34.24-.74.35-1.19.35l-.29-.03 2.34-1.65zm-2.99 2.82l-.08.06c-.07.05-.14.03-.21-.06l-.24-.35.3-.21.24.34c.06.1.06.17-.01.22zm.41 2.35c-.13.32-.1.64.08.98.18.34.44.55.77.62.31.07.64.01.99-.18l4.66-2.49-.44-.82-4.65 2.48c-.23.12-.4.1-.49-.08-.09-.16-.02-.31.22-.43l4.65-2.48-.44-.82-4.66 2.49c-.34.19-.57.43-.69.73zm1.58 3.73l3.46-1.36-.65.83-2.61 1.03.34.86 6-2.36-.34-.87-1.77.7 1.56-1.94-.14-.19-6.19 2.43zm2.77.97l-.72.75.13.5-1.24.32.23.9 1.24-.32.12.48c.01.08.01.13.01.15-.01.01-.06.03-.15.05l-1.06.27.23.9 1.05-.27c.53-.14.81-.41.86-.82.54.26 1.19.29 1.95.09l2.38-.62-.23-.9-2.39.62c-.69.18-1.29.11-1.79-.21l4.01-1.04-.23-.9-4.15 1.07-.25-1.02zm4.34 4.2l-4.31.57c-.36.05-.64.2-.83.46-.19.26-.26.57-.22.93.05.35.2.63.46.83.25.2.55.27.91.22l4.31-.57c.35-.05.62-.2.82-.46.2-.26.27-.57.23-.91-.05-.36-.2-.64-.45-.84-.25-.2-.56-.27-.92-.23zm.43 1.19c.02.12 0 .2-.04.23-.05.06-.17.1-.36.13l-3.95.52c-.3.04-.46-.04-.49-.24-.01-.09 0-.17.05-.23.06-.06.18-.11.36-.13l3.95-.52c.29-.04.45.04.48.24zm1.09 5.66l.03-.93-4.28-.15.04-1.07-.91.51-.01.53-1.28-.05-.04.93 1.28.05-.02.59-1.28-.05-.03.92 6.44.23.04-.91-4.29-.16.03-.59zm-5.33 2.69c-.26-.2-.4-.51-.42-.92l-.97-.14c.04.4.11.73.21.98.32.74.99 1.19 2.04 1.33l4.06.57.13-.92-4.06-.56c-.45-.06-.78-.18-.99-.34zm.42 3.07l-1 .28-.15.5-1.23-.36-.37 1.25c-.05.17-.07.33-.06.48.02.48.25.78.68.9l.28.08c.23.07.43.06.61-.03.12-.05.25-.15.37-.31.37.53.86.89 1.47 1.07 1.13.33 2.14.04 3.03-.89.25-.26.4-.47.45-.65l-4.37-1.28.29-1.04zm-1.53 2.07c-.03.11-.09.16-.18.13l-.09-.03c-.09-.03-.11-.09-.08-.2l.12-.41.35.1-.12.41zm3.89.71l-.29.13c-.43.14-.86.15-1.29.03-.4-.12-.74-.35-1.02-.71l-.16-.25 2.76.8zm-5.64 1.21c-.33.1-.56.32-.72.68-.15.36-.16.69-.01.99.14.28.39.5.75.66l4.85 2.09.37-.85-4.85-2.08c-.24-.1-.32-.25-.25-.43.07-.17.23-.2.47-.1L71.62 53l.37-.85-4.85-2.09c-.35-.15-.69-.18-.99-.09zm-1.93 3.57l3.22 1.85-1.05.01-2.44-1.4-.46.81 5.58 3.21.47-.8-1.65-.95 2.49.01.06-.23-5.76-3.32zm.96 2.77l-1.04-.09-.31.41-1.02-.77-.56.74 1.02.77-.3.4c-.06.06-.1.09-.11.1a.6.6 0 01-.13-.08l-.87-.66-.56.74.86.65c.44.33.83.38 1.18.16.13.58.51 1.11 1.15 1.58l1.97 1.48.55-.74-1.97-1.48c-.57-.43-.89-.94-.95-1.53l3.31 2.49.56-.74-3.42-2.58.64-.85zm-3.71 3c-.26-.25-.56-.38-.88-.37-.32.01-.61.15-.86.41-.25.25-.37.55-.36.88 0 .32.13.6.39.85l3.13 3.02c.25.24.54.36.87.35.33-.01.61-.14.86-.39.25-.26.38-.55.38-.87 0-.32-.13-.61-.39-.86l-3.14-3.02zm2.47 4.09c-.08.09-.15.12-.21.11-.08-.01-.19-.07-.32-.2l-2.87-2.77c-.22-.21-.25-.38-.12-.53.06-.07.14-.1.21-.11.09.01.2.07.33.2l2.87 2.77c.21.21.25.38.11.53zm-4.69-.25l-.97-.39-.42.31-.76-1.03-.75.56.77 1.03-.48.35-.77-1.03-.73.55 3.85 5.18.73-.55-2.55-3.44.47-.35 2.56 3.44.74-.56-2.55-3.44zm-4.48 2.15c0-.32.15-.63.46-.9l-.5-.84c-.29.28-.5.54-.63.78-.38.71-.31 1.52.23 2.42l2.09 3.52.8-.47-2.09-3.52c-.24-.4-.36-.72-.36-.99zm-2.1 2.22l-.84-.61-.48.2-.49-1.18-1.2.49c-.16.07-.3.15-.42.25-.36.32-.45.68-.28 1.09l.11.27c.09.22.22.37.4.45.12.07.27.1.48.09-.18.62-.15 1.23.09 1.81.45 1.09 1.31 1.7 2.59 1.81.36.03.62.01.79-.06l-1.73-4.22.98-.39zm-2.57.1c-.11.04-.18.03-.21-.06l-.04-.09c-.03-.08 0-.15.1-.19l.39-.16.14.34-.38.16zm1.88 3.48l-.28-.15c-.38-.25-.66-.58-.83-.99-.16-.38-.18-.8-.08-1.24l.1-.28 1.09 2.66zm-4.47-3.64c-.28-.19-.61-.24-.98-.13-.38.1-.64.31-.78.61-.14.28-.15.62-.04 1l1.4 5.09.9-.25-1.4-5.08c-.07-.26-.01-.41.18-.46.18-.05.3.05.38.31l1.4 5.08.9-.25-1.4-5.09c-.11-.38-.3-.65-.56-.83zm-3.99.71l.56 3.68-.66-.81-.43-2.78-.92.14.98 6.37.92-.14-.29-1.88 1.55 1.95.22-.09-1.01-6.58zm-2.14 1.62l-.52.02-.04-1.28-.93.03.04 1.28-.5.02a.61.61 0 01-.15-.03c-.01-.01-.01-.06-.02-.16l-.03-1.09-.93.03.03 1.08c.02.55.22.89.61 1.02-.37.46-.54 1.09-.52 1.88l.07 2.46.93-.03-.07-2.46c-.02-.72.18-1.28.6-1.7l.14 4.14.93-.03-.13-4.28 1.07-.03-.58-.87zm-5.2-1.49c-.35-.03-.66.06-.92.27-.25.2-.39.48-.42.84l-.4 4.33a1.182 1.182 0 001.11 1.32c.36.03.67-.05.92-.25s.39-.48.43-.84l.4-4.33c.03-.37-.05-.67-.26-.92-.21-.24-.49-.38-.86-.42zm-.19 5.4c-.03.3-.14.43-.34.41-.12-.01-.19-.04-.22-.09-.05-.07-.06-.19-.05-.38l.37-3.97c.03-.3.14-.44.34-.42.09.01.17.04.22.1.05.07.07.2.05.38l-.37 3.97z"/><path class="st1" d="M28.54.32h-6.99v35.61h-9.29l5.02 8.01h4.26v10.73h8.38V43.94h4.19v10.73h8.38V24.25h-8.38v11.68h-4.19V.32h-1.38z"/><path class="st2" d="M41.11 53.29H35.5V42.56h-6.95v10.73h-5.61V42.56h-4.88l-3.29-5.24h8.17V1.7h5.61v35.61h6.95V25.63h5.61v27.66z"/><path class="st1" d="M55.49 24.25H48.5v34.46c0 7.39-2.51 11.5-7.68 12.57l-1.1.23v8.81l1.7-.41c10.25-2.45 15.45-9.58 15.45-21.2V24.25h-1.38z"/><path class="st2" d="M55.49 58.71c0 10.95-4.8 17.56-14.39 19.86v-5.93c5.85-1.21 8.78-5.85 8.78-13.92V25.63h5.61v33.08z"/></svg>