<?xml version="1.0" encoding="UTF-8"?>
<svg id="_レイヤー_1" data-name="レイヤー 1" xmlns="http://www.w3.org/2000/svg" viewBox="0 0 539.16 829.32">
  <defs>
    <style>
      .cls-1 {
        fill: #00a593;
      }
    </style>
  </defs>
  <path class="cls-1" d="m423.62,100.53l.52-1.83c1.84-7.65,2.41-13.13,2.41-23.48V23.18h39.74v8.57h-33.33v10.63h33.33v7.99h-33.33s0,42.76,0,42.76h33.33v8.84h-40.23v11.28h40.23v14.58h20.26v-14.58h39.54v-11.28h-39.54v-8.84h19.47c2.86,0,5.16-.18,6.99-.63h0c2.72-.67,4.44-1.97,5.46-4.19h0s0,0,0,0c1.05-2.26,1.42-5.52,1.42-10.14v-27.79h-33.35v-7.99h36.17s0-10.63,0-10.63h-36.17v-8.57h38.72v-12.84h-46.64V0h-22.17v10.34h-46.79v66.15c0,5.79,0,10.86-.55,13.71-.46,2.37-1.24,7.91-6.05,11.63v20.06c10.98-3.35,16.58-10.05,20.54-21.36Zm42.68-16.95v1.07h-18.75v-9.83h18.75v8.76Zm0-17.48v1.07h-18.75v-9.28h18.75v8.21Zm20.26-7.15v-1.07h18.8v9.28h-18.8v-8.21Zm0,16.94v-1.07h18.8v9.83h-18.8v-8.76Zm-216.97,562.92c-29.76,0-53.88,24.13-53.88,53.88s24.13,53.89,53.88,53.89,53.88-24.13,53.88-53.89-24.13-53.88-53.88-53.88Zm-58.77-326.93v4.09c0,14.76,11.96,26.72,26.72,26.72h26.38c14.76,0,26.72,11.96,26.72,26.72v103.11c0,32.76-12.39,41.54-34.76,41.54-9.94,0-20.03-3.71-29.8-10.55-11.05-7.74-26.11-6.13-35.17,3.86l-4.09,4.51c-10.46,11.54-8.9,29.63,3.47,39.1,21.46,16.42,46.51,22.21,67.99,22.21,74.71,0,101.07-43.14,101.07-95.08v-192.95h-121.81c-14.76,0-26.72,11.96-26.72,26.72Zm114.8-207.66l1.39.92.13.08c16.16,10.77,38.45,17.88,58.56,18.83v-18.17c-14.92-.8-25.74-3.96-41.89-12.13h0s-3.26-1.65-3.26-1.65l2.28-2.51.2-.22c15.35-16.91,20.94-30.51,28.03-55.49l.53-1.88.03-.11h0s11.85,0,11.85,0V15.58h-47.7V0h-20.61v15.58h-47.7v16.3h12.25s.03.12.03.12l.49,1.7.04.15c8.05,27.73,16.16,43.71,27.96,55.57l2.57,2.58-2.89,1.67-.25.14c-13.04,7.54-25.28,10.98-42.29,11.92v18.28c21.43-.23,41.66-6.69,58.77-18.76l1.48-1.05Zm-25.76-72.33h51.44s-51.44,0-51.44,0h0Zm24.02,46.02h0c-10.75-9.88-20.05-29.14-23.23-42.62h0s-.77-3.28-.77-3.28l-.03-.11h51.44l-.03.11-.81,3.09-.07.27c-4.59,17.54-11.66,30.73-22.79,42.4l-1.8,1.89-1.77-1.62-.15-.14Zm43.47,83.27h-195.54C76.92,161.18,0,238.11,0,333v195.54c0,75.69,48.96,139.9,116.93,162.8,1.52.67,3.09,1.22,4.72,1.66,2.8.76,5.72,1.2,8.76,1.2,18.4,0,33.32-14.92,33.32-33.32,0-12.96-7.42-24.17-18.22-29.68-7.8-4.56-16.2-8.02-23.86-12.82-.82-.52-1.69-.96-2.49-1.52-1.04-.72-2.22-1.36-3.44-1.96-28.25-18.41-47-50.22-47-86.38v-195.54c0-56.84,46.25-103.09,103.09-103.09h194.98c56.84,0,103.09,46.24,103.09,103.09v195.54c0,36.16-18.75,67.97-47,86.38-1.22.59-2.4,1.24-3.44,1.96-.8.56-1.67,1-2.49,1.52-7.65,4.8-16.06,8.26-23.86,12.82-10.81,5.51-18.22,16.72-18.22,29.68,0,18.4,14.92,33.32,33.32,33.32,3.04,0,5.96-.44,8.76-1.2,1.62-.44,3.2-.99,4.72-1.66,14.17-4.78,27.45-11.44,39.69-19.53.04.11.07.21.11.32,46.75-30.69,77.68-83.49,77.68-143.59v-195.54c0-94.89-76.92-171.81-171.81-171.81Zm-97.77,605.34c-17.34,0-31.4,14.06-31.4,31.39s14.06,31.4,31.4,31.4,31.4-14.06,31.4-31.4-14.06-31.39-31.4-31.39ZM170.93,71.05h66.85v-16.7h-66.85v-28.8h78.58V8.99h-98.59v115.06h20.01v-53.01ZM33.05,37.39l27.18,83.66h20.7l26.64-85.84-1.47,88.84h21.08V8.99h-33.4l-20.57,71.29-2.31,8L44.91,8.99H13.72v115.06h20.8l-1.47-86.67Z"/>
</svg>