<svg version="1.1" id="レイヤー_1" xmlns="http://www.w3.org/2000/svg" x="0" y="0" viewBox="0 0 80 42.5" xml:space="preserve"><style>.st0{fill:#0075c1}</style><path class="st0" d="M23.45 21.34v4.37h13.96c-1.93 7.16-8.46 12.45-16.22 12.45-9.27 0-16.81-7.55-16.81-16.82S11.92 4.53 21.19 4.53c5.66 0 10.66 2.82 13.71 7.12l3.58-2.53C34.64 3.7 28.33.15 21.19.15 9.49.15 0 9.64 0 21.34s9.49 21.19 21.19 21.19 21.19-9.49 21.19-21.19H23.45z"/><path class="st0" d="M53.3.9c-9.03 2.43-15.68 10.65-15.68 20.44 0 3.52.87 6.83 2.38 9.74L53.3.9zm.77 8.68l-7.02 16.44h13.88zm8.65 20.68H45.2l-2.19 5.15c3.88 4.35 9.52 7.11 15.81 7.11 2.95 0 5.75-.6 8.31-1.69l-4.41-10.57zm8.45 8.26C76.51 34.67 80 28.42 80 21.34 80 9.63 70.51.15 58.81.15c-1.35 0-2.66.14-3.94.38l16.3 37.99z"/><path d="M62.41 12.08v-.77h3.06v-1.06h.8v1.06h3.09v.77h-1.05c-.48 1.76-1.34 2.83-1.8 3.31 1.07.74 2.18.97 2.82 1.08l-.42.81c-1.41-.36-2.29-.82-3.01-1.36-1.11.86-2.34 1.19-3.08 1.36l-.37-.79c.75-.14 1.78-.38 2.82-1.11-.97-.94-1.55-2.16-1.86-3.3h-1zm1.82 0c.31 1.06.83 2.05 1.65 2.8.83-.79 1.34-1.8 1.59-2.8h-3.24zm5.82-1.28h2.68v-.53h.77v.53h2.98v.68h-5.71v2.74c0 1.03-.21 2.34-.73 3l-.62-.57c.45-.73.62-1.58.62-2.43V10.8h.01zm6.33 1.15v.63h-2.39v.41h2.02v2.39h-2.02v.44h2.46v.65h-2.46v.79h-.71v-.79h-2.5v-.65h2.5v-.44h-1.95v-2.39h1.95v-.41h-2.35v-.63h2.35v-.34h.71v.34h2.39zm-4.36 1.53v.46h1.26v-.46h-1.26zm0 .94v.47h1.26v-.47h-1.26zm1.96-.94v.46h1.31v-.46h-1.31zm0 .94v.47h1.31v-.47h-1.31z" fill="#fff"/></svg>