<?xml version="1.0" encoding="utf-8"?>
<!-- Generator: Adobe Illustrator 27.7.0, SVG Export Plug-In . SVG Version: 6.00 Build 0)  -->
<svg version="1.1" id="レイヤー_1" xmlns="http://www.w3.org/2000/svg" xmlns:xlink="http://www.w3.org/1999/xlink" x="0px"
	 y="0px" viewBox="0 0 150 150" style="enable-background:new 0 0 150 150;" xml:space="preserve">
<style type="text/css">
	.st0{enable-background:new    ;}
	.st1{fill:#B8193F;}
</style>
<g>
	<g class="st0">
		<path d="M47.27,78.63l-4.71-2.72l-0.05,16.22l4.71,2.72L47.27,78.63 M47.36,48.89l-4.71-2.72L42.6,62.39l4.71,2.72L47.36,48.89
			 M87.05,20.39l-2.31,6.79L59.39,41.91l2.13-6.69L87.05,20.39 M28.53,38.04L28.36,97.5l-4.7-2.71l0.17-59.46L75.24,5.45l4.7,2.71
			L28.53,38.04z M37.94,43.47l-0.17,59.46l-4.71-2.72l0.18-59.47l51.4-29.87l4.71,2.72L37.94,43.47z M61.39,86.78l4.7,2.71
			l-0.05,16.22l-4.7-2.71L61.39,86.78z M66.18,59.77l-0.05,16.2l-4.7-2.71l0.05-16.22l51.41-29.86l4.7,2.71L66.18,59.77z
			 M75.59,65.21l-0.05,16.2l-4.7-2.71l0.05-16.22l51.41-29.86l4.7,2.71L75.59,65.21z M101.11,28.57L75.58,43.41l-11.57,1.28
			l25.35-14.73L101.11,28.57 M56.68,84.06l-4.7-2.71l-0.05,16.22l4.7,2.71L56.68,84.06 M56.77,54.33l-4.7-2.71l-0.05,16.22l4.7,2.71
			L56.77,54.33"/>
		<path class="st1" d="M89.56,68.94l10.06-5.85c3.46-2.01,6.01-3.11,7.64-3.31c1.63-0.19,2.44,0.86,2.44,3.15
			c-0.01,2.29-0.79,4.26-2.37,5.93c-1.58,1.67-4.13,3.53-7.67,5.59l-10.13,5.89L89.56,68.94 M89.49,92.24l13.53-7.86
			c6.38-3.71,9.57-3.58,9.56,0.39c-0.01,3.95-3.21,7.77-9.59,11.48l-13.53,7.86L89.49,92.24 M126.87,77.93
			c0.01-3.89-0.9-6.53-2.73-7.9c-1.84-1.38-4.51-1.84-8.02-1.41c1.11-1.13,2.22-2.61,3.33-4.44c1.1-1.82,2.03-3.87,2.78-6.15
			c0.75-2.27,1.12-4.5,1.13-6.68c0.01-2-0.35-3.64-1.06-4.91c-0.71-1.27-1.79-2.11-3.25-2.5c-1.46-0.4-3.37-0.26-5.76,0.41
			c-2.38,0.67-5.18,1.94-8.4,3.81L75.57,65.19l-0.17,59.48l34.17-19.86c5.44-3.16,9.69-7.16,12.72-11.97
			C125.33,88.01,126.86,83.04,126.87,77.93"/>
	</g>
	<g>
		<g>
			<g>
				<path d="M71.52,138.06v-1.9h-8.27v3.47h8.43c-0.59,3.35-2.86,5.38-6.59,5.86l-0.36,0.05v3.38l0.44-0.03
					c3.78-0.23,10.02-1.97,10.51-10.84H71.52z"/>
				<rect x="72.15" y="134.9" width="2.53" height="2.52"/>
				<rect x="75.77" y="134.9" width="2.52" height="2.52"/>
			</g>
			<g>
				<polygon points="77.03,142.72 77.06,138.06 80,138.06 79.97,142.72 				"/>
			</g>
			<g>
				<polygon points="81.01,142.72 81.04,138.06 83.98,138.06 83.95,142.72 				"/>
			</g>
			<path d="M33.61,136.16h3.48l2.91,4.37l2.89-4.37h3.48v12.76h-3.48v-6.38L40,146.8l-2.91-4.25v6.38h-3.48V136.16z"/>
			<path d="M48.51,136.16h12.76v3.48h-9.28v2.9h7.59v3.48h-7.59v2.9h-3.48V136.16z"/>
		</g>
		<path d="M85.7,140.39L85.7,140.39c0,2.8-2.27,5.06-5.06,5.06h0v3.47h0c4.71,0,8.53-3.82,8.53-8.53v0H85.7z"/>
		<g>
			<path d="M117.05,144.64l-2.6-1.99c0.01-0.02,0.03-0.04,0.04-0.07c1.04-1.81,1.58-3.83,1.61-6.01l0-0.42h-10.65v3.44h6.32
				c-1.03,3.11-4.09,5.14-6.76,5.79l-0.31,0.08v3.46l0.48-0.07c2.61-0.41,5.2-1.69,7.16-3.54l4.71,3.61V144.64z"/>
			<path d="M93.08,136.5c-0.29,1.69-1.11,2.97-2.42,3.81l-0.19,0.12v3.53l0.53-0.15c2.15-0.62,3.96-2.19,4.89-4.22h3.93
				c-0.57,3.65-2.47,5.59-6.32,5.94l-0.36,0.03v3.37l0.4-0.01c6.65-0.22,10.17-4.23,10.18-11.59v-1.16H93.14L93.08,136.5z"/>
		</g>
	</g>
</g>
</svg>
