<svg xmlns="http://www.w3.org/2000/svg" viewBox="0 0 79.89 77.46"><defs><style>.cls-1{fill:#e85298;}</style></defs><g id="レイヤー_2" data-name="レイヤー 2"><g id="レイヤー_1のコピー" data-name="レイヤー 1のコピー"><path class="cls-1" d="M51,77.46a3.27,3.27,0,0,1-3.37-3.08,2.6,2.6,0,1,1,5.19,0,3.42,3.42,0,0,1,0,.44l-.28,1.59a.32.32,0,0,0,.17.37c.39.16,3.86-1.1,7.77-14.85a1.56,1.56,0,0,0-1.63-2.15l-45.3-.61s45.15-.44,46.63-.69c1.06-.18,1.43-.38,1.84-1.38l.09-.22a17.87,17.87,0,0,1,4.44-6.62A8.55,8.55,0,0,1,71.9,48.2a3.29,3.29,0,0,1,3.38,3.09,2.6,2.6,0,0,1-5.19,0,2.28,2.28,0,0,1,0-.45l.28-1.58a.38.38,0,0,0-.17-.38.35.35,0,0,0-.2-.05c-.34,0-3.31,1.41-5.35,8l-.19.67a.9.9,0,0,0,.14.77,1,1,0,0,0,.77.35H70L68.64,59.9H64.83c-.56,0-1.08.24-1.49,1.65-.73,2.49-1.23,4.29-1.8,5.88a18.16,18.16,0,0,1-4.85,7.73A8.62,8.62,0,0,1,51,77.46Z"/><path class="cls-1" d="M10.73,61.26v-.47h-4v.46h.11a3,3,0,0,1,.56.08,1.4,1.4,0,0,1,.39.19,1.6,1.6,0,0,1,.55.69,2.85,2.85,0,0,1,.19,1.1v3.26L3.42,60.83l0,0H.14v.47H.36a1.72,1.72,0,0,1,.76.15,1.07,1.07,0,0,1,.47.42,1.38,1.38,0,0,1,.16.67v4.71a2.26,2.26,0,0,1-.17.92,1.13,1.13,0,0,1-.52.54,2.56,2.56,0,0,1-.95.22H0v.46H4.23v-.46H4.11a4.35,4.35,0,0,1-.64-.06,1.77,1.77,0,0,1-.66-.22A1.26,1.26,0,0,1,2.35,68a3.34,3.34,0,0,1-.15-1.11V62.26l6.41,7.18H9V63.37a2.62,2.62,0,0,1,.41-1.59,1.34,1.34,0,0,1,1.16-.52Z"/><path class="cls-1" d="M18.22,62.12A4.53,4.53,0,0,0,16.63,61a5,5,0,0,0-2-.39,4.74,4.74,0,0,0-4,2.24,4.23,4.23,0,0,0-.27,3.93,4.58,4.58,0,0,0,1,1.44,4.83,4.83,0,0,0,3.35,1.28,4.89,4.89,0,0,0,2.36-.59,4.61,4.61,0,0,0,1.7-1.61,4.2,4.2,0,0,0,.62-2.22,4.12,4.12,0,0,0-.31-1.58A4.63,4.63,0,0,0,18.22,62.12ZM12.88,68a4.38,4.38,0,0,1-.52-1.26,6.92,6.92,0,0,1-.18-1.64,7.21,7.21,0,0,1,.12-1.35,4.73,4.73,0,0,1,.34-1.12,3.5,3.5,0,0,1,.54-.86,2,2,0,0,1,.7-.5,2.18,2.18,0,0,1,.89-.18,1.88,1.88,0,0,1,.54.1,2.13,2.13,0,0,1,.5.25,2.71,2.71,0,0,1,.75.82,4.27,4.27,0,0,1,.49,1.23A6.24,6.24,0,0,1,17.22,65a6.74,6.74,0,0,1-.31,2.18A3,3,0,0,1,16,68.57a2,2,0,0,1-1.33.48,2,2,0,0,1-1-.27A2.51,2.51,0,0,1,12.88,68Z"/><path class="cls-1" d="M35,65.78c-.13.47-.25.85-.36,1.13a3.09,3.09,0,0,1-.8,1.18,2.75,2.75,0,0,1-.63.46,3,3,0,0,1-.77.25,4.88,4.88,0,0,1-1,.09H30.32V65.41h.2a1.52,1.52,0,0,1,1.3.61,3.3,3.3,0,0,1,.27.47,2.76,2.76,0,0,1,.19.61,6.62,6.62,0,0,1,.16.82V68h.43V62.33h-.43v.11c0,.32-.08.57-.12.74a2.9,2.9,0,0,1-.39,1A1.48,1.48,0,0,1,30.6,65h-.28v-3.7H31.7a4,4,0,0,1,1.59.29,2,2,0,0,1,.7.6,4,4,0,0,1,.45.77,11.16,11.16,0,0,1,.39,1.24l0,.1h.39V60.79H24.52v.46h.11a1,1,0,0,1,.73.29,1,1,0,0,1,.26.73,2.26,2.26,0,0,1-.2.81l-1.64,4-2-4.71a1.68,1.68,0,0,1-.15-.63.44.44,0,0,1,.16-.37.77.77,0,0,1,.51-.14H23v-.47H18.3v.47h.39c.5,0,.92.39,1.24,1.17l3,7.1.36,0,2.56-6.29a6.46,6.46,0,0,1,.57-1.1,2.3,2.3,0,0,1,.59-.61,1.12,1.12,0,0,1,.57-.22.79.79,0,0,1,.59.3,1.54,1.54,0,0,1,.3,1.06v4.84c0,.94-.41,1.4-1.26,1.4h-.34l0,.46h8.55V65.69H35Z"/><path class="cls-1" d="M44.45,65.52a10.06,10.06,0,0,1-.31,1,5.12,5.12,0,0,1-.32.73,5.81,5.81,0,0,1-.4.61,2.58,2.58,0,0,1-.86.76,2.16,2.16,0,0,1-1.05.27H39.66V62.65a1.54,1.54,0,0,1,.3-1.06,1.27,1.27,0,0,1,1-.33h.67v-.47H36.14v.47h.39c.86,0,1.27.45,1.27,1.39v4.84c0,.94-.41,1.4-1.27,1.4h-.41l0,.46h8.75V65.43h-.41Z"/><path class="cls-1" d="M53.17,66a2,2,0,0,0-.44-.69,2.85,2.85,0,0,0-.89-.64,11.19,11.19,0,0,0-1.6-.55l-.71-.19-.25-.07-1.12-.32a5.3,5.3,0,0,1-.63-.26,1.4,1.4,0,0,1-.36-.27.85.85,0,0,1-.27-.63A1.07,1.07,0,0,1,47,62a1.45,1.45,0,0,1,.26-.4,1.53,1.53,0,0,1,.55-.37,2.26,2.26,0,0,1,.77-.13,4.17,4.17,0,0,1,1.16.17,4.29,4.29,0,0,1,1,.47,3.15,3.15,0,0,1,.76.68A5.4,5.4,0,0,1,52.31,64l0,.08h.4V61h-.41l0,.09c-.16.6-.42.6-.5.6a1.61,1.61,0,0,1-.58-.24,5.45,5.45,0,0,0-2.64-.78A3.63,3.63,0,0,0,47,61a2.52,2.52,0,0,0-1.1.9,2.25,2.25,0,0,0-.4,1.31,1.91,1.91,0,0,0,.36,1.12,2.47,2.47,0,0,0,.57.59,4.86,4.86,0,0,0,.89.45,18.4,18.4,0,0,0,1.79.59l.54.16c.46.13.8.24,1,.33a4.56,4.56,0,0,1,.61.28,1.36,1.36,0,0,1,.37.27,1.06,1.06,0,0,1,.3.73,1.16,1.16,0,0,1-.22.7,1.46,1.46,0,0,1-.64.49A3,3,0,0,1,49,68.82a5.18,5.18,0,0,1-1.24-.63,5,5,0,0,1-1-.89,3.49,3.49,0,0,1-.73-1.79V65.4h-.43v4.09h.42l0-.1a.91.91,0,0,1,1.29-.69A4.22,4.22,0,0,1,48,69a7.52,7.52,0,0,0,1.16.43,4.34,4.34,0,0,0,1,.12,4.07,4.07,0,0,0,1.4-.23,2.72,2.72,0,0,0,1-.71,2.48,2.48,0,0,0,.51-.8,2.66,2.66,0,0,0,.17-.91A2.22,2.22,0,0,0,53.17,66Z"/><rect class="cls-1" y="70.98" width="46.54" height="0.71"/><path class="cls-1" d="M36.05,0A22.68,22.68,0,1,0,58.73,22.68,22.68,22.68,0,0,0,36.05,0Zm0,43.58A17.67,17.67,0,0,1,21.32,16.09a19.05,19.05,0,0,0,17.75,26,19.32,19.32,0,0,0,5.72-.87A17.67,17.67,0,0,1,36,43.58Zm0-6.51A14.39,14.39,0,1,1,50.44,22.68,14.39,14.39,0,0,1,36.05,37.07Zm14.55.66A22.51,22.51,0,0,0,32.17,2.28h-.68a21.28,21.28,0,0,1,4.61-.51A20.89,20.89,0,0,1,50.6,37.73Z"/><path class="cls-1" d="M79.89,7.32l-42,17.85L30.52.69a22.65,22.65,0,0,0-12,7.67h0l-.06.08c-.4.5-.78,1-1.14,1.55l17.2,23.44Z"/><path class="cls-1" d="M61.78,48.1H58v7.39H57.2L54.41,48.1H51.72l-2.84,7.39H44.67V48.1H42.21v9.48H50.7l.65-1.66h3.39l.62,1.66h5.1V54.43h1.4c2.15,0,3.36-1,3.36-3.22S63.81,48.1,61.78,48.1ZM52,54l1-3h0l1,3Zm8.86-1.59h-.42V50.09h.42c.95,0,1.77,0,1.77,1.2S61.78,52.45,60.88,52.45Z"/><path class="cls-1" d="M40.54,51.21c0-2.17-1.41-3.11-3.45-3.11H33.33v7.39h-4.2V53.85h2.78V51.77H29.13V50.18h2.92V48.1H24l-2.3,5.75L19.45,48.1H12.14a5,5,0,1,0,0,10A5,5,0,0,0,17.38,53a4.55,4.55,0,0,0-.93-2.77h1.2l3.11,7.4h1.91l3.16-7.4h.83v7.4h9.13V54.43l2.35,3.15h3.07l-2.57-3.35C39.87,53.85,40.54,52.88,40.54,51.21Zm-28.4,4.57A2.71,2.71,0,0,1,9.46,53a2.69,2.69,0,0,1,5.36,0A2.72,2.72,0,0,1,12.14,55.78ZM36.2,52.45h-.41V50.09h.41c1,0,1.78,0,1.78,1.2S37.09,52.45,36.2,52.45Z"/></g></g></svg>