<?xml version="1.0" encoding="UTF-8"?>
<svg id="_レイヤー_1" data-name="レイヤー 1" xmlns="http://www.w3.org/2000/svg" viewBox="0 0 177.22 153.33">
  <defs>
    <style>
      .cls-1 {
        fill: #003b83;
      }
    </style>
  </defs>
  <g>
    <path class="cls-1" d="m117.19,46.15l-4.86,23.54-42.65,33.24H0l2.28-10.93h64.8l7.89-35.53H25.64l6.82-30.94L65.64,0h61.87l-2.12,10.93h-49.34l-7.9,35.22h49.04Z"/>
    <g>
      <path class="cls-1" d="m9.49,120.35c-.59,0-1.34-.02-1.87-.48-.59-.43-.68-1.09-.68-1.89v-3.26c0-.84.21-1.44.62-1.8.43-.36,1.09-.55,2.05-.55h4.99v1.23h-4.88c-.5,0-.82.09-.98.27-.18.21-.25.59-.25,1.16v2.85c0,.48.09.8.3.98.18.16.57.25,1.14.25h2.96c.64,0,1.32.02,1.87.46.55.46.68,1.12.68,1.91v3.8c0,.82-.2,1.41-.64,1.78-.41.39-1.09.57-2.03.57h-5.83v-1.23h5.72c.48,0,.82-.11.98-.3.16-.21.25-.59.25-1.16v-3.37c0-.5-.11-.82-.3-.98-.2-.18-.57-.25-1.14-.25h-2.96Z"/>
      <path class="cls-1" d="m26.46,119.33v8.31h-5.29c-.41,0-.66-.02-.8-.05-.55-.09-.82-.59-.84-1.18v-2.96c.02-.93.5-1.39,1.44-1.37h4.1v-2.19c0-.32-.07-.52-.21-.66-.14-.11-.39-.16-.77-.16h-2.16c-.34,0-.55.05-.66.16-.09.09-.16.32-.16.66v.73h-1.3v-1.37c-.02-.93.43-1.41,1.37-1.41h3.67c1.09.05,1.62.52,1.62,1.48Zm-1.39,3.99h-3.19c-.34,0-.59.05-.75.14-.14.11-.21.3-.21.55v1.62c0,.32.07.52.21.62.14.11.39.18.75.18h3.19v-3.1Z"/>
      <path class="cls-1" d="m30.56,126.18v-6.9c.02-.96.5-1.43,1.44-1.41h5.67v13.12c0,.73.02,1.07-.46,1.48-.3.25-.82.39-1.55.41h-4.44v-1.23h3.85c.48,0,.82-.07.98-.23.16-.14.23-.43.23-.84v-2.94h-4.03c-1.09.02-1.64-.46-1.69-1.46Zm1.39-.64c0,.34.09.57.23.68.16.11.45.18.89.18h3.21v-7.31h-3.21c-.46,0-.75.05-.89.18-.16.11-.23.39-.23.8v5.47Z"/>
      <path class="cls-1" d="m48.71,119.33v8.31h-5.29c-.41,0-.66-.02-.8-.05-.55-.09-.82-.59-.84-1.18v-2.96c.02-.93.5-1.39,1.44-1.37h4.1v-2.19c0-.32-.07-.52-.21-.66-.14-.11-.39-.16-.78-.16h-2.16c-.34,0-.55.05-.66.16-.09.09-.16.32-.16.66v.73h-1.3v-1.37c-.02-.93.43-1.41,1.37-1.41h3.67c1.09.05,1.62.52,1.62,1.48Zm-1.39,3.99h-3.19c-.34,0-.59.05-.75.14-.14.11-.2.3-.2.55v1.62c0,.32.07.52.2.62.14.11.39.18.75.18h3.19v-3.1Z"/>
      <path class="cls-1" d="m8.49,138.35v5.51h4.9v1.25h-4.9v7.25h-1.55v-15.26h8.32v1.25h-6.77Z"/>
      <path class="cls-1" d="m20.92,142.59h2.69c1.3-.05,1.94.55,1.96,1.8v6.08c0,1.37-.48,1.89-2,1.89h-2.69c-1.3-.02-1.96-.57-1.98-1.82v-6.08c0-.43.05-.75.09-.96.07-.18.18-.36.39-.52.3-.25.82-.39,1.55-.39Zm.59,1.23c-.5,0-.82.07-.98.2-.16.14-.25.43-.25.87v5.01c0,.46.09.77.23.96.16.18.43.27.82.27h1.62c.5,0,.84-.07,1-.23.16-.14.23-.43.23-.84v-5.03c0-.46-.07-.78-.23-.96-.14-.16-.41-.25-.8-.25h-1.64Z"/>
      <path class="cls-1" d="m34.13,143.98c-.16-.11-.46-.16-.89-.16h-2.19v8.54h-1.39v-9.77h4.4c1.07-.05,1.64.46,1.69,1.44v1.28h-1.39v-.62c0-.37-.09-.59-.23-.71Z"/>
      <path class="cls-1" d="m46,152.36h-5.1c-.64,0-1.09-.14-1.34-.41-.27-.27-.39-.75-.39-1.41v-6.29c0-.62.11-1.05.36-1.3.25-.27.66-.39,1.28-.39h3.49c.62,0,1.07.14,1.34.39.27.27.43.73.43,1.32v3.8h-5.51v2.19c0,.36.05.61.16.71.14.09.41.16.84.16h4.44v1.23Zm-5.44-5.51h4.12v-2.16c0-.39-.07-.64-.18-.73-.11-.11-.39-.16-.8-.16h-2.25c-.34,0-.57.04-.71.18-.14.14-.18.37-.18.73v2.14Z"/>
      <path class="cls-1" d="m51.9,147.76c-1.28.05-1.94-.57-1.96-1.8v-1.5c0-.43.02-.75.09-.96.07-.21.18-.36.36-.52.32-.25.84-.39,1.57-.41h4.42v1.23h-3.83c-.5,0-.82.09-.98.23-.18.14-.25.43-.25.87,0,.89.07,1.21.23,1.37.14.18.41.27.8.27h2.3c1.28,0,1.94.55,1.96,1.8v2.14c0,.43-.02.75-.09.96-.07.18-.18.37-.36.52-.32.25-.84.39-1.57.41h-4.42v-1.23h3.83c.5,0,.82-.09.98-.23.16-.14.25-.43.25-.87v-1.07c0-.46-.07-.77-.23-.96-.16-.16-.41-.25-.82-.25h-2.28Z"/>
      <path class="cls-1" d="m63.12,136.41v6.15h1.57v1.23h-1.57v8.57h-1.55v-8.57h-1.55v-1.23h1.55v-6.15h1.55Z"/>
    </g>
  </g>
  <polygon class="cls-1" points="166.24 82.57 177.22 74.15 115.14 74.15 91.01 92.96 77.74 153.33 108.81 153.33 116.51 117.6 151.18 117.6 162.04 109.19 118.38 109.19 124.22 82.57 166.24 82.57"/>
</svg>